<svg width="11" height="11" viewBox="0 0 11 11" fill="none" xmlns="http://www.w3.org/2000/svg">
<path d="M6.39948 5.84388C6.03469 5.77562 5.66275 5.75377 5.29248 5.77888V7.12891C5.30247 7.12962 5.31249 7.12962 5.32248 7.12891C5.57148 7.12391 5.82248 7.12887 6.06848 7.10987C6.2879 7.09946 6.50278 7.04362 6.69949 6.94587C6.7792 6.90728 6.84841 6.85009 6.90131 6.77906C6.9542 6.70803 6.9892 6.62527 7.00333 6.53785C7.01746 6.45043 7.01031 6.36087 6.98248 6.2768C6.95466 6.19273 6.90697 6.11661 6.84348 6.05488C6.71813 5.94439 6.5643 5.87129 6.39948 5.84388Z" fill="white"/>
<path d="M5.94569 5.14591C6.10564 5.12282 6.26234 5.08119 6.41267 5.02189C6.49249 4.98822 6.56262 4.93512 6.61665 4.86741C6.67068 4.79969 6.70689 4.71955 6.722 4.63425C6.73711 4.54895 6.73065 4.46122 6.70317 4.37906C6.67569 4.29691 6.62807 4.22295 6.56468 4.16392C6.44047 4.05709 6.28732 3.98954 6.12468 3.96988C5.86996 3.93122 5.61198 3.91852 5.35469 3.93192C5.30069 3.93192 5.28469 3.94689 5.28569 4.00089C5.28569 4.36689 5.28569 4.73293 5.28569 5.10093C5.28569 5.11993 5.28569 5.13894 5.28569 5.16794C5.40669 5.16794 5.52166 5.16794 5.63566 5.16794C5.73942 5.16895 5.84312 5.16156 5.94569 5.14591Z" fill="white"/>
<path d="M5.82863 0.428955C4.81485 0.429153 3.82387 0.729963 2.98103 1.29334C2.1382 1.85671 1.48134 2.65732 1.09352 3.59399C0.705701 4.53067 0.604331 5.56132 0.802232 6.5556C1.00013 7.54988 1.48842 8.46309 2.20534 9.17987C2.92226 9.89665 3.83562 10.3848 4.82994 10.5825C5.82426 10.7802 6.85489 10.6787 7.79149 10.2907C8.72809 9.90271 9.52861 9.24559 10.0918 8.40265C10.655 7.5597 10.9556 6.56872 10.9556 5.55493C10.9556 4.88169 10.823 4.21506 10.5653 3.59308C10.3077 2.9711 9.93 2.40594 9.4539 1.92993C8.97781 1.45393 8.4126 1.07639 7.79057 0.818848C7.16854 0.561301 6.50187 0.428824 5.82863 0.428955ZM8.13762 6.97693C8.07916 7.13944 7.9849 7.28673 7.86183 7.4079C7.73876 7.52907 7.59003 7.62102 7.42662 7.67694C7.1218 7.7855 6.80202 7.84622 6.47862 7.85693C6.35862 7.86493 6.37862 7.85693 6.37862 7.96393C6.37862 8.24593 6.37862 8.528 6.37862 8.81V8.883H5.76262V7.88293H5.27562V8.883H4.65862V7.86493H3.41963C3.46163 7.61493 3.50263 7.37696 3.54363 7.13196H3.61363C3.73863 7.13196 3.86462 7.13196 3.99062 7.13196C4.02113 7.13397 4.05173 7.12948 4.0804 7.11884C4.10907 7.10819 4.13516 7.09162 4.15697 7.07019C4.17878 7.04876 4.19581 7.02292 4.20696 6.99445C4.2181 6.96597 4.22308 6.93551 4.2216 6.90497V4.23694C4.22641 4.1918 4.22127 4.14614 4.2065 4.10321C4.19172 4.06028 4.1677 4.02115 4.13612 3.98853C4.10455 3.9559 4.06618 3.9306 4.02376 3.91443C3.98134 3.89826 3.93589 3.89163 3.89061 3.89496C3.73661 3.88996 3.58261 3.89496 3.42461 3.89496V3.23694H4.65563V2.22797H5.26763C5.26763 2.25397 5.27361 2.27997 5.27361 2.30597V3.20593H5.76262V2.22394H6.37462C6.37462 2.26994 6.37462 2.31492 6.37462 2.35992C6.37462 2.63192 6.37462 2.90295 6.37462 3.17395C6.37462 3.21995 6.38662 3.23597 6.43562 3.24097C6.71672 3.26201 6.99276 3.32713 7.25362 3.43396C7.4378 3.50628 7.59549 3.63313 7.70558 3.79755C7.81567 3.96197 7.87291 4.1561 7.86962 4.35394C7.888 4.57361 7.83543 4.79339 7.71962 4.98096C7.64872 5.08507 7.55757 5.17382 7.45162 5.24194C7.42062 5.26194 7.38861 5.27993 7.35161 5.30493C7.41661 5.32593 7.47361 5.34192 7.52861 5.36292C7.65784 5.40007 7.77792 5.46372 7.88121 5.5498C7.98451 5.63589 8.06877 5.74251 8.12862 5.86292C8.18051 5.98674 8.2142 6.11743 8.22862 6.25092C8.25507 6.4967 8.22391 6.74528 8.13762 6.97693Z" fill="white"/>
</svg>
