<svg width="11" height="12" viewBox="0 0 11 12" fill="none" xmlns="http://www.w3.org/2000/svg">
<path d="M5.31206 11.1449C8.14362 11.1449 10.4391 8.84943 10.4391 6.01787C10.4391 3.18631 8.14362 0.890869 5.31206 0.890869C2.48049 0.890869 0.185059 3.18631 0.185059 6.01787C0.185059 8.84943 2.48049 11.1449 5.31206 11.1449Z" fill="#E27820"/>
<path d="M5.8579 2.68689C5.8579 2.73289 5.8579 2.77785 5.8579 2.82385C5.8579 3.09485 5.8579 3.3659 5.8579 3.6369C5.8579 3.6829 5.8699 3.69889 5.9189 3.7049C6.19994 3.72564 6.47598 3.79038 6.7369 3.89685C6.92109 3.96917 7.07878 4.09608 7.18887 4.2605C7.29896 4.42492 7.35619 4.61905 7.3529 4.81689C7.37128 5.03656 7.31871 5.25628 7.2029 5.44385C7.13254 5.54841 7.04129 5.63733 6.9349 5.7049C6.9039 5.7249 6.8719 5.74288 6.8349 5.76788C6.8999 5.78888 6.9569 5.80487 7.0119 5.82587C7.14116 5.86296 7.26126 5.92661 7.36456 6.0127C7.46787 6.09878 7.5521 6.20542 7.6119 6.32587C7.66377 6.44935 7.69745 6.57973 7.7119 6.71289C7.73819 6.95761 7.70739 7.20505 7.6219 7.43585C7.5634 7.59851 7.46902 7.74594 7.34576 7.86713C7.2225 7.98831 7.07353 8.08014 6.9099 8.13586C6.60538 8.24437 6.28598 8.30545 5.9629 8.31689C5.8429 8.32389 5.8629 8.31685 5.8629 8.42285C5.8629 8.70485 5.8629 8.98686 5.8629 9.26886V9.34186H5.2469V8.34186H4.7599V9.34186H4.1429V8.32385H2.8999L3.0239 7.59088H3.0929C3.2189 7.59088 3.3449 7.59088 3.4709 7.59088C3.50142 7.59289 3.53201 7.5884 3.56068 7.57776C3.58934 7.56712 3.61544 7.55055 3.63725 7.52911C3.65906 7.50768 3.6761 7.48191 3.68724 7.45343C3.69838 7.42495 3.70338 7.39444 3.7019 7.36389V4.69989C3.70669 4.65471 3.70151 4.60901 3.68674 4.56604C3.67198 4.52307 3.64798 4.48387 3.61642 4.45117C3.58487 4.41848 3.54654 4.39306 3.50412 4.37677C3.4617 4.36048 3.41623 4.3537 3.3709 4.35687C3.2169 4.35687 3.0629 4.35687 2.9049 4.35687V3.69989H4.1399V2.69086H4.7509C4.7509 2.71686 4.7569 2.74286 4.7569 2.76886V3.66888H5.2459V2.68689H5.8579ZM4.7729 6.24091V7.59088C4.78289 7.59149 4.79291 7.59149 4.8029 7.59088C5.0529 7.59088 5.3029 7.5909 5.5499 7.5719C5.76919 7.56143 5.98398 7.50592 6.1809 7.40887C6.26062 7.37016 6.32985 7.31282 6.38273 7.2417C6.43561 7.17058 6.47059 7.0878 6.48472 7.00031C6.49884 6.91282 6.49169 6.82322 6.46387 6.73907C6.43606 6.65493 6.38839 6.57874 6.3249 6.51691C6.20002 6.40497 6.04615 6.33043 5.8809 6.30188C5.51562 6.23487 5.14333 6.2144 4.7729 6.24091ZM4.7729 5.62787C4.8939 5.62787 5.0089 5.62787 5.1229 5.62787C5.22492 5.63012 5.32695 5.62378 5.4279 5.60889C5.58795 5.58628 5.74472 5.54463 5.8949 5.48486C5.97453 5.451 6.04445 5.3978 6.09832 5.33008C6.15219 5.26236 6.18831 5.18225 6.20341 5.09705C6.2185 5.01184 6.2121 4.92421 6.18477 4.8421C6.15744 4.76 6.11005 4.68605 6.0469 4.62689C5.92296 4.52025 5.7702 4.45271 5.6079 4.43286C5.35284 4.39427 5.09452 4.38157 4.8369 4.3949C4.7829 4.3949 4.7669 4.4099 4.7679 4.4649C4.7679 4.8309 4.7679 5.19688 4.7679 5.56488C4.7689 5.58088 4.7709 5.59987 4.7729 5.62787Z" fill="white"/>
</svg>
