<svg width="1080" height="720" viewBox="0 0 1080 720" fill="none" xmlns="http://www.w3.org/2000/svg">
<mask id="mask0_74_180" style="mask-type:luminance" maskUnits="userSpaceOnUse" x="0" y="0" width="1080" height="720">
<path d="M1080 0.47998H0V719.45H1080V0.47998Z" fill="white"/>
</mask>
<g mask="url(#mask0_74_180)">
<path opacity="0.01" d="M562.62 251.94C572.6 253.33 581.15 253.99 588.76 256.16C597.48 258.65 605.17 265.82 607.25 271.78C608.81 276.25 609.64 283.38 612.13 289.5C615.39 297.5 613.79 312.18 613.47 322.91C613.26 329.78 612.6 335.57 610.21 341.09C606.58 349.49 601.24 360.46 595.15 366.65C590.09 371.79 584.63 375.54 579.14 377.79C570.66 381.26 555.1 383.23 542.22 380.77C532.87 378.99 522.4 376.61 513.7 372.55C505.82 368.87 498.77 364.74 492.89 359.7C487.47 355.05 483.26 349.47 480.4 343.14C476.32 334.12 471.24 322.95 468.33 312.23C466.11 303.92 467.21 297.97 469.7 292.54C474.65 281.73 485.72 271.56 499.35 263.56C517.12 253.13 546.25 249.66 562.62 251.94Z" stroke="white" stroke-width="1.069" stroke-miterlimit="10"/>
<path opacity="0.01" d="M569.53 236.95C582.19 238.36 593.57 237.78 604.43 239.43C616.35 241.24 628.26 251.29 630.21 258.07C631.75 263.4 632.33 273.58 636.87 281.33C642.34 290.67 639.29 312.39 638.68 325.34C638.24 334.6 637.43 341.64 633.18 348.32C627.41 357.4 618.55 371.99 609.82 378.33C602.16 383.9 594.67 387.53 587.41 389.13C577.29 391.37 554.45 393.75 539.33 392.52C527.56 391.56 513.09 389.95 501.52 385.54C490.75 381.43 481.19 376.75 473.48 370.61C466.21 364.83 460.93 357.48 458.05 348.7C454.3 337.3 447.67 321.9 443.95 307.84C440.89 296.09 442.98 289.01 446.58 282.8C453.93 270.12 468.98 257.94 487.29 248.33C509.66 236.6 550.73 234.86 569.53 236.95Z" stroke="white" stroke-width="1.0733" stroke-miterlimit="10"/>
<path opacity="0.012" d="M576.43 221.96C591.78 223.36 605.97 221.61 620.09 222.71C635.2 223.89 651.33 236.78 653.16 244.37C654.66 250.57 654.96 263.82 661.6 273.16C669.22 283.88 664.76 312.6 663.89 327.78C663.22 339.42 662.34 347.76 656.15 355.56C648.36 365.39 635.81 383.47 624.49 390.02C614.2 395.97 604.75 399.61 595.68 400.49C583.99 401.63 553.78 404.37 536.44 404.28C522.23 404.21 503.78 403.32 489.33 398.53C475.66 394 463.61 388.77 454.06 381.53C444.95 374.61 438.54 365.53 435.68 354.28C432.19 340.54 424.08 320.88 419.56 303.47C415.67 288.28 418.75 280.08 423.46 273.08C433.23 258.54 452.22 244.31 475.24 233.13C502.18 220.04 555.21 220.02 576.43 221.96Z" stroke="white" stroke-width="1.0776" stroke-miterlimit="10"/>
<path opacity="0.016" d="M583.34 206.96C601.37 208.34 618.38 205.45 635.77 205.98C654.07 206.54 674.41 222.26 676.14 230.66C677.59 237.73 677.6 254.08 686.36 264.98C696.1 277.1 690.26 312.8 689.12 330.2C688.2 344.23 687.31 353.9 679.13 362.78C669.36 373.4 653.08 394.91 639.17 401.69C626.23 407.99 614.85 411.73 603.96 411.83C590.7 411.95 553.12 415.02 533.55 416.03C516.91 416.89 494.46 416.69 477.15 411.52C460.58 406.57 446.03 400.79 434.65 392.44C423.69 384.39 416.12 373.57 413.33 359.84C410.06 343.75 400.52 319.83 395.19 299.08C390.47 280.44 394.55 271.14 400.35 263.35C412.56 246.96 435.46 230.65 463.19 217.91C494.68 203.44 559.7 205.15 583.34 206.96Z" stroke="white" stroke-width="1.082" stroke-miterlimit="10"/>
<path opacity="0.02" d="M590.25 191.97C610.97 193.32 630.8 188.81 651.44 189.26C672.94 189.73 697.47 207.75 699.1 216.96C700.5 224.9 700.2 244.36 711.1 256.82C722.95 270.37 715.72 313.02 714.33 332.64C713.16 349.06 712.28 360.09 702.1 370.02C690.38 381.46 670.33 406.35 653.83 413.38C638.25 420.02 624.91 423.92 612.22 423.19C597.39 422.33 552.45 425.72 530.65 427.79C511.58 429.6 485.14 430.07 464.96 424.52C445.49 419.16 428.44 412.82 415.23 403.36C402.43 394.18 393.67 381.62 390.97 365.42C387.89 346.99 376.94 318.81 370.81 294.71C365.26 272.63 370.34 262.21 377.24 253.63C391.89 235.4 418.69 216.99 451.15 202.7C487.19 186.83 564.19 190.27 590.25 191.97Z" stroke="white" stroke-width="1.0863" stroke-miterlimit="10"/>
<path opacity="0.024" d="M597.15 176.97C620.56 178.28 643.2 173.16 667.1 172.53C691.8 171.87 720.52 193.24 722.05 203.25C723.4 212.07 722.79 234.65 735.83 248.64C749.79 263.62 741.18 313.22 739.53 335.06C738.11 353.86 737.25 366.28 725.06 377.24C711.39 389.53 687.58 417.76 668.49 425.05C650.26 432.02 634.97 436.12 620.47 434.53C604.04 432.73 551.77 436.42 527.74 439.54C506.24 442.33 475.8 443.45 452.76 437.51C430.39 431.74 410.84 424.84 395.8 414.27C381.15 403.96 371.2 389.66 368.59 370.98C365.69 350.21 353.34 317.76 346.41 290.33C340.02 264.8 346.11 253.28 354.1 243.9C371.2 223.83 401.89 203.3 439.07 187.48C479.68 170.21 568.68 175.38 597.15 176.97Z" stroke="white" stroke-width="1.0906" stroke-miterlimit="10"/>
<path opacity="0.028" d="M604.06 161.98C630.15 163.24 655.62 157.03 682.77 155.8C710.68 154.54 743.57 178.72 745.01 189.54C746.3 199.23 745.38 224.94 760.56 240.47C776.62 256.89 766.63 313.43 764.74 337.5C763.07 358.69 762.24 372.51 748.02 384.48C732.4 397.63 704.82 429.18 683.15 436.75C662.28 444.03 645.01 448.36 628.73 445.89C610.7 443.15 551.11 447.16 524.84 451.3C500.92 455.07 466.47 456.83 440.57 450.51C415.3 444.34 393.22 436.91 376.38 425.19C359.86 413.79 348.72 397.7 346.23 376.56C343.5 353.44 329.76 316.74 322.03 285.96C314.81 256.99 321.9 244.36 330.99 234.19C350.54 212.29 385.12 189.63 427.02 172.29C472.18 153.59 573.17 160.49 604.06 161.98Z" stroke="white" stroke-width="1.0949" stroke-miterlimit="10"/>
<path opacity="0.032" d="M610.97 146.99C639.75 148.2 668.03 140.9 698.44 139.08C729.55 137.22 766.62 164.21 767.97 175.84C769.2 186.4 767.97 215.25 785.3 232.3C803.47 250.17 792.1 313.63 789.95 339.93C788.02 363.5 787.24 378.74 770.99 391.72C753.43 405.75 722.08 440.6 697.82 448.44C674.3 456.04 655.06 460.61 637 457.25C617.35 453.59 550.46 457.9 521.95 463.06C495.62 467.83 457.16 470.22 428.39 463.5C400.22 456.92 375.64 448.93 356.97 436.1C338.6 423.57 326.25 405.74 323.87 382.12C321.31 356.66 306.19 315.69 297.65 281.57C289.6 249.15 297.69 235.43 307.87 224.45C329.87 200.71 368.33 175.92 414.97 157.06C464.68 136.96 577.66 145.59 610.97 146.99Z" stroke="white" stroke-width="1.0992" stroke-miterlimit="10"/>
<path opacity="0.036" d="M617.87 131.99C649.34 133.14 680.44 124.76 714.11 122.35C748.43 119.89 789.67 149.7 790.94 162.13C792.1 173.57 790.57 205.56 810.05 224.12C830.32 243.44 817.57 313.83 815.17 342.35C812.99 368.31 812.24 384.97 793.97 398.94C774.46 413.85 739.35 451.99 712.49 460.11C686.33 468.02 665.1 472.85 645.27 468.59C624 464.02 549.82 468.62 519.05 474.81C490.31 480.59 447.83 483.6 416.2 476.49C385.12 469.51 358.05 460.95 337.55 447.01C317.33 433.35 303.76 413.78 301.51 387.69C299.11 359.87 282.61 314.66 273.27 277.19C264.39 241.33 273.49 226.5 284.76 214.72C309.22 189.15 351.56 162.22 402.92 141.84C457.17 120.32 582.15 130.69 617.87 131.99Z" stroke="white" stroke-width="1.1035" stroke-miterlimit="10"/>
<path opacity="0.04" d="M624.78 117C658.93 118.09 692.87 108.64 729.78 105.63C767.3 102.57 812.72 135.19 813.9 148.43C815 160.74 813.16 195.88 834.79 215.96C857.16 236.73 843.03 314.05 840.39 344.79C837.95 373.13 837.25 391.23 816.94 406.18C795.48 421.98 756.61 463.41 727.16 471.8C698.35 480.01 675.13 485.12 653.53 479.95C630.63 474.47 549.18 479.38 516.15 486.57C485 493.36 438.51 496.99 404.01 489.49C370.03 482.1 340.46 472.99 318.13 457.94C296.07 443.15 281.27 421.83 279.15 393.27C276.91 363.1 259.03 313.63 248.89 272.82C239.17 233.51 249.28 217.59 261.64 205C288.55 177.61 334.77 148.52 390.86 126.63C449.67 103.69 586.64 115.78 624.78 117Z" stroke="white" stroke-width="1.1079" stroke-miterlimit="10"/>
<path opacity="0.044" d="M631.68 102.01C668.52 103.03 705.28 92.51 745.44 88.91C786.17 85.26 835.75 120.68 836.85 134.73C837.88 147.91 835.74 186.2 859.52 207.79C884 230.01 868.48 314.26 865.59 347.23C862.89 377.96 862.23 397.49 839.9 413.42C816.49 430.11 773.86 474.81 741.82 483.49C710.37 492.01 685.15 497.39 661.79 491.31C637.25 484.92 548.53 490.13 513.25 498.34C479.7 506.14 429.18 510.39 391.82 502.5C354.94 494.71 322.87 485.03 298.71 468.87C274.8 452.95 258.77 429.89 256.78 398.86C254.69 366.34 235.45 312.62 224.5 268.46C213.95 225.71 225.06 208.68 238.51 195.3C267.87 166.08 317.98 134.84 378.8 111.45C442.16 87.05 591.12 100.88 631.68 102.01Z" stroke="white" stroke-width="1.1122" stroke-miterlimit="10"/>
<path opacity="0.048" d="M638.59 87.01C678.11 87.97 717.7 76.3699 761.11 72.1699C805.04 67.9199 858.8 106.15 859.81 121.01C860.77 135.06 858.32 176.5 884.26 199.61C910.84 223.29 893.94 314.46 890.8 349.65C887.84 382.76 887.23 403.74 862.87 420.64C837.51 438.23 791.12 486.2 756.49 495.16C722.4 503.98 695.17 509.64 670.06 502.65C643.88 495.35 547.9 500.87 510.36 510.08C474.41 518.9 419.87 523.76 379.63 515.48C339.85 507.29 305.28 497.04 279.29 479.77C253.53 462.72 236.27 437.91 234.42 404.41C232.49 369.54 211.87 311.56 200.11 264.06C188.73 217.86 200.85 199.74 215.39 185.55C247.21 154.5 301.19 121.11 366.74 96.2099C434.66 70.4099 595.61 85.97 638.59 87.01Z" stroke="white" stroke-width="1.1165" stroke-miterlimit="10"/>
<path opacity="0.052" d="M645.5 72.02C687.71 72.91 730.12 60.25 776.79 55.45C823.93 50.61 881.85 91.65 882.78 107.31C883.67 122.23 880.92 166.82 909.01 191.44C937.69 216.58 919.41 314.67 916.02 352.08C912.81 387.58 912.24 410 885.84 427.87C858.53 446.36 808.38 497.6 771.15 506.84C734.42 515.96 705.18 521.91 678.32 513.99C650.49 505.79 547.26 511.61 507.46 521.83C469.11 531.67 410.52 537.22 367.44 528.47C324.74 519.96 287.69 509.06 259.87 490.68C232.26 472.5 213.77 445.94 212.05 409.98C210.27 372.75 188.28 310.53 175.72 259.68C163.51 210.04 176.63 190.81 192.26 175.82C226.54 142.95 284.39 107.4 354.67 80.99C427.15 53.77 600.1 71.06 645.5 72.02Z" stroke="white" stroke-width="1.1208" stroke-miterlimit="10"/>
<path opacity="0.056" d="M652.4 57.02C697.3 57.84 742.53 44.11 792.45 38.72C842.8 33.28 904.88 77.13 905.74 93.6C906.56 109.4 903.51 157.14 933.75 183.27C964.53 209.87 944.87 314.87 941.24 354.51C937.77 392.39 937.24 416.26 908.82 435.1C879.56 454.49 825.66 509 785.83 518.52C746.46 527.94 715.2 534.18 686.6 525.34C657.12 516.23 546.65 522.36 504.58 533.58C463.83 544.45 401.22 550.6 355.27 541.45C309.67 532.53 270.12 521.08 240.47 501.58C211.02 482.28 191.29 453.96 189.71 415.54C188.08 375.95 164.73 309.48 151.36 255.29C138.31 202.2 152.44 181.88 169.17 166.08C205.9 131.39 267.64 93.68 342.65 65.77C419.65 37.13 604.59 56.15 652.4 57.02Z" stroke="white" stroke-width="1.1251" stroke-miterlimit="10"/>
<path opacity="0.06" d="M659.31 42.03C706.89 42.78 754.96 27.99 808.12 22C861.68 15.97 927.92 62.62 928.7 79.9C929.45 96.57 926.09 147.46 958.49 175.1C991.38 203.16 970.26 315.08 966.45 356.95C962.64 397.21 962.24 422.54 931.79 442.34C900.58 462.63 842.92 520.4 800.5 530.21C758.49 539.93 725.22 546.46 694.86 536.7C663.73 526.69 546.01 533.12 501.67 545.34C458.52 557.23 391.89 563.98 343.07 554.45C294.58 545.13 252.52 533.11 221.04 512.5C189.74 492.07 168.78 462 167.34 421.11C165.86 379.17 141.14 308.45 126.97 250.91C113.09 194.38 128.23 172.96 146.04 156.36C185.23 119.84 250.84 79.97 330.58 50.56C412.14 20.48 609.07 41.24 659.31 42.03Z" stroke="white" stroke-width="1.1295" stroke-miterlimit="10"/>
<path opacity="0.064" d="M666.22 27.04C716.49 27.72 767.38 11.86 823.79 5.28005C880.56 -1.34995 950.96 48.11 951.66 66.2C952.33 83.74 948.68 137.79 983.23 166.93C1018.22 196.45 995.72 315.28 991.66 359.38C987.6 402.02 987.24 428.8 954.75 449.57C921.59 470.77 860.18 531.8 815.16 541.9C770.51 551.92 735.22 558.74 703.12 548.06C670.34 537.15 545.38 543.89 498.77 557.11C453.23 570.03 382.56 577.38 330.88 567.46C279.49 557.73 234.93 545.15 201.62 523.43C168.47 501.87 146.27 470.06 144.97 426.7C143.64 382.4 117.55 307.43 102.58 246.55C87.87 186.58 104.01 164.05 122.92 146.65C164.56 108.31 234.05 66.2801 318.53 35.3601C404.64 3.84005 613.56 26.32 666.22 27.04Z" stroke="white" stroke-width="1.1338" stroke-miterlimit="10"/>
<path opacity="0.068" d="M673.12 12.04C726.07 12.65 779.79 -4.26996 839.45 -11.46C899.42 -18.68 973.99 33.58 974.61 52.48C975.21 70.89 971.26 128.1 1007.96 158.75C1045.05 189.73 1021.18 315.48 1016.87 361.8C1012.56 406.83 1012.24 435.06 977.72 456.79C942.61 478.9 877.44 543.18 829.82 553.57C782.53 563.89 745.22 571.01 711.38 559.4C676.94 547.58 544.74 554.63 495.87 568.85C447.94 582.8 373.24 590.74 318.69 580.44C264.4 570.3 217.34 557.17 182.2 534.34C147.21 511.65 123.77 478.09 122.61 432.26C121.43 385.6 93.97 306.39 78.2 242.16C62.66 178.74 79.81 155.12 99.8 136.91C143.9 96.75 217.26 52.5501 306.47 20.1301C397.13 -12.8099 618.05 11.41 673.12 12.04Z" stroke="white" stroke-width="1.1381" stroke-miterlimit="10"/>
<path opacity="0.072" d="M680.03 -2.95001C735.67 -2.42001 792.23 -20.29 855.13 -28.18C918.33 -35.89 997.04 19.07 997.58 38.78C998.11 58.06 993.85 118.42 1032.71 150.58C1071.91 183.02 1046.66 315.69 1042.09 364.23C1037.52 411.64 1037.24 441.33 1000.7 464.02C963.63 487.03 894.71 554.58 844.5 565.25C794.57 575.86 755.24 583.28 719.66 570.74C683.56 558.02 544.13 565.38 492.99 580.6C442.66 595.58 363.93 604.12 306.52 593.43C249.33 582.88 199.77 569.19 162.8 545.25C125.96 521.43 101.28 486.12 100.26 437.83C99.23 388.81 70.41 305.35 53.83 237.78C37.45 170.92 55.64 146.23 76.7 127.18C123.33 85.28 200.43 38.66 294.43 4.91998C389.56 -29.62 622.54 -3.50001 680.03 -2.95001Z" stroke="white" stroke-width="1.1424" stroke-miterlimit="10"/>
<path opacity="0.076" d="M686.94 -17.9501C745.26 -17.4901 804.65 -36.4401 870.8 -44.9101C937.2 -53.2301 1020.08 4.54993 1020.54 25.0699C1020.99 45.2199 1016.44 108.74 1057.45 142.41C1098.75 176.32 1072.12 315.9 1067.3 366.67C1062.48 416.47 1062.24 447.62 1023.66 471.27C984.64 495.19 911.97 565.99 859.16 576.95C806.59 587.86 765.23 595.58 727.91 582.11C690.15 568.49 543.49 576.15 490.08 592.37C437.36 608.38 354.6 617.51 294.32 606.44C234.23 595.49 182.17 581.23 143.37 556.18C104.68 531.23 78.76 494.17 77.89 443.41C77.01 392.03 46.82 304.33 29.44 233.41C12.23 163.1 31.42 137.31 53.57 117.47C102.64 73.7399 183.64 24.9899 282.37 -10.2801C382.07 -46.2501 627.02 -18.4201 686.94 -17.9501Z" stroke="white" stroke-width="1.1467" stroke-miterlimit="10"/>
<path opacity="0.08" d="M693.84 -32.9401C754.85 -32.6701 817.06 -52.5701 886.46 -61.6301C956.07 -70.5601 1043.11 -9.96007 1043.5 11.3699C1043.88 32.3899 1039.03 99.0699 1082.18 134.24C1125.59 169.61 1097.58 316.11 1092.5 369.1C1087.42 421.28 1087.22 453.89 1046.62 478.5C1005.64 503.33 929.23 577.38 873.82 588.63C818.61 599.84 775.23 607.85 736.17 593.46C696.75 578.94 542.86 586.91 487.17 604.13C432.06 621.17 345.27 630.9 282.11 619.43C219.12 608.07 164.56 593.25 123.93 567.09C83.39 541.01 56.23 502.19 55.51 448.98C54.78 395.25 23.22 303.29 5.03998 229.04C-13 155.29 7.18998 128.4 30.44 107.75C81.96 62.1799 166.85 11.2999 270.3 -25.4901C374.57 -62.8701 631.51 -33.4501 693.84 -32.9401Z" stroke="white" stroke-width="1.1511" stroke-miterlimit="10"/>
<path opacity="0.084" d="M700.75 -47.93C764.44 -47.72 829.49 -68.71 902.13 -78.35C974.95 -87.89 1066.15 -24.46 1066.46 -2.32998C1066.76 19.56 1061.61 89.4 1106.92 126.07C1152.43 162.9 1123.05 316.32 1117.72 371.53C1112.39 426.1 1112.23 460.16 1069.6 485.73C1026.67 511.47 946.48 588.68 888.49 600.31C830.62 611.72 785.24 620.13 744.44 604.81C703.36 589.39 542.24 597.67 484.28 615.88C426.78 633.95 335.95 644.27 269.93 632.42C204.04 620.65 146.98 605.28 104.52 578C62.14 550.79 33.73 510.22 33.15 454.54C32.56 398.45 -0.350004 302.25 -19.34 224.65C-38.21 147.45 -17.02 119.46 7.32 98.01C61.29 50.61 150.08 -2.39998 258.24 -40.72C367.07 -79.49 636 -48.34 700.75 -47.93Z" stroke="white" stroke-width="1.1554" stroke-miterlimit="10"/>
<path opacity="0.088" d="M707.66 -62.9299C774.04 -62.7699 841.91 -84.8599 917.8 -95.0899C993.82 -105.24 1089.15 -38.9899 1089.42 -16.0499C1089.61 6.72009 1084.14 79.7801 1131.66 117.89C1179.22 156.26 1148.51 316.52 1142.93 373.95C1137.35 430.9 1137.23 466.43 1092.56 492.95C1047.67 519.6 963.74 600.09 903.15 611.98C842.65 623.71 795.23 632.39 752.7 616.15C709.96 599.82 541.61 608.41 481.38 627.63C421.49 646.73 326.63 657.65 257.74 645.41C188.95 633.23 129.39 617.3 85.1 588.91C40.87 560.58 11.12 518.25 10.79 460.11C10.24 401.66 -23.93 301.21 -43.72 220.27C-63.43 139.63 -41.23 110.53 -15.79 88.2801C40.62 39.0501 133.31 -16.0899 246.2 -55.9299C359.58 -96.1099 640.48 -63.2299 707.66 -62.9299Z" stroke="white" stroke-width="1.1597" stroke-miterlimit="10"/>
<path opacity="0.092" d="M714.56 -77.92C783.62 -77.81 854.32 -101 933.47 -111.81C1012.7 -122.57 1112.2 -53.5 1112.38 -29.75C1112.51 -6.11002 1106.75 70.09 1156.4 109.72C1206.08 149.53 1173.98 316.72 1168.14 376.39C1162.3 435.73 1162.28 472.8 1115.53 500.19C1068.74 527.85 981.01 611.51 917.82 623.67C854.69 635.72 805.23 644.68 760.97 627.51C716.56 610.28 541.02 619.27 478.49 639.39C416.24 659.62 317.31 671.03 245.56 658.41C173.87 645.83 111.8 629.33 65.69 599.83C19.61 570.37 -11.35 526.29 -11.57 465.68C-11.93 404.87 -47.51 300.18 -68.11 215.89C-88.65 131.8 -65.45 101.61 -38.92 78.56C19.94 27.5 116.52 -29.78 234.13 -71.14C352.08 -112.73 644.97 -78.13 714.56 -77.92Z" stroke="white" stroke-width="1.164" stroke-miterlimit="10"/>
<path opacity="0.096" d="M721.47 -92.9099C793.22 -92.8599 866.74 -117.14 949.14 -128.53C1031.58 -139.9 1135.25 -68.0099 1135.34 -43.4499C1135.4 -18.9399 1129.35 60.3901 1181.14 101.56C1232.94 142.81 1199.45 316.94 1193.36 378.83C1187.27 440.55 1187.26 479.04 1138.51 507.43C1089.74 535.95 998.29 622.94 932.5 635.36C866.73 647.73 815.22 657.02 769.24 638.86C723.15 620.78 540.39 629.98 475.6 651.14C410.95 672.35 308 684.41 233.38 671.4C158.79 658.41 94.22 641.36 46.28 610.75C-1.64997 580.16 -33.81 534.33 -33.92 471.26C-34.1 408.09 -71.08 299.15 -92.48 211.52C-113.85 123.99 -89.65 92.6901 -62.02 68.8401C-0.709976 15.9501 99.76 -43.4599 222.09 -86.3499C344.58 -129.35 649.46 -93.0199 721.47 -92.9099Z" stroke="white" stroke-width="1.1683" stroke-miterlimit="10"/>
<path opacity="0.1" d="M-85.15 59.11C-113.87 83.76 -139.08 116.16 -116.87 207.14C-94.66 298.12 -56.29 411.3 -56.29 476.83C-56.29 542.36 -22.92 589.95 26.85 621.67C76.62 653.39 143.69 671 221.18 684.4C298.67 697.8 405.64 685.11 472.69 662.9C539.74 640.7 729.76 631.18 777.49 650.21C825.23 669.24 878.75 659.73 947.15 647.04C1015.55 634.35 1110.71 544.04 1161.47 514.65C1212.23 485.26 1212.22 445.36 1218.57 381.25C1224.92 317.14 1259.81 136.07 1205.88 93.38C1151.95 50.69 1158.3 -31.78 1158.3 -57.16C1158.3 -82.54 1050.45 -157.24 964.8 -145.26C879.15 -133.28 802.8 -107.91 728.37 -107.91C653.94 -107.91 337.08 -145.97 210.02 -101.57C82.96 -57.17 -21.39 4.39001 -85.15 59.11Z" stroke="white" stroke-width="1.1726" stroke-miterlimit="10"/>
</g>
</svg>
