<svg width="56" height="39" viewBox="0 0 56 39" fill="none" xmlns="http://www.w3.org/2000/svg">
<path d="M13.2589 12.28C14.3949 12.2851 15.5069 11.9532 16.4544 11.3263C17.4018 10.6995 18.1421 9.8057 18.5816 8.7581C19.0211 7.7105 19.14 6.55612 18.9234 5.4409C18.7068 4.32569 18.1644 3.29972 17.3647 2.49278C16.5651 1.68584 15.5441 1.13413 14.4309 0.907454C13.3177 0.680778 12.1623 0.789296 11.1107 1.21928C10.0592 1.64927 9.15878 2.38144 8.52335 3.32316C7.88791 4.26488 7.54599 5.37389 7.54083 6.50993C7.53867 8.0319 8.13877 9.4929 9.21008 10.574C10.2814 11.655 11.7369 12.2683 13.2589 12.28ZM28.0588 16.6749C29.1957 16.6759 30.3073 16.3397 31.2531 15.709C32.1989 15.0782 32.9364 14.1811 33.3724 13.1312C33.8083 12.0813 33.9232 10.9257 33.7024 9.81047C33.4815 8.69527 32.935 7.67058 32.1318 6.86601C31.3287 6.06144 30.3049 5.51309 29.1901 5.29033C28.0753 5.06757 26.9195 5.18041 25.8688 5.61455C24.8181 6.04869 23.9198 6.78465 23.2874 7.72935C22.6549 8.67406 22.3168 9.78507 22.3159 10.9219C22.3195 12.4452 22.9257 13.9051 24.0021 14.983C25.0785 16.0609 26.5376 16.6691 28.0609 16.6749H28.0588ZM42.6588 12.2749C43.7987 12.3076 44.9225 12.0003 45.8871 11.392C46.8516 10.7836 47.6132 9.90196 48.0749 8.85924C48.5365 7.81651 48.6773 6.65993 48.4793 5.53691C48.2812 4.41389 47.7534 3.37531 46.9629 2.55339C46.1724 1.73147 45.1552 1.16343 44.0407 0.921737C42.9263 0.680046 41.7651 0.77559 40.7052 1.19621C39.6453 1.61683 38.7345 2.34353 38.0891 3.28361C37.4436 4.2237 37.0926 5.33461 37.0808 6.4749C37.0617 7.9811 37.6365 9.4343 38.6808 10.5198C39.7252 11.6053 41.155 12.2359 42.6609 12.2749H42.6588ZM15.4239 24.7999C16.8577 21.8942 19.1657 19.5106 22.0238 17.9839C21.9845 17.9141 21.94 17.8472 21.8908 17.7839C18.2318 13.9349 12.9349 12.7229 8.21686 15.1449C6.438 16.0798 4.8769 17.3803 3.63605 18.961C2.39519 20.5417 1.50261 22.367 1.01685 24.3169C0.698846 25.3979 0.560844 26.5329 0.339844 27.6429V29.4839C0.377844 29.6199 0.423843 29.7549 0.451843 29.8939C0.617297 31.1047 1.2323 32.209 2.17462 32.9872C3.11694 33.7653 4.31756 34.1604 5.53784 34.0939C7.91918 34.0939 10.3002 34.0939 12.6808 34.0939H13.3478C13.2143 30.8676 13.9302 27.6628 15.4239 24.7999ZM24.6169 18.8669C17.5889 21.1319 14.6719 28.9819 15.2079 34.0669C15.3112 35.3151 15.8972 36.4738 16.8413 37.2967C17.7854 38.1197 19.0133 38.542 20.2639 38.4739H28.0579C30.7819 38.4739 33.5059 38.4739 36.2299 38.4739C37.2132 38.5063 38.1754 38.184 38.9409 37.5659C39.5269 37.1215 40.0094 36.5549 40.3547 35.9055C40.7001 35.2561 40.9001 34.5393 40.9409 33.8049C41.0764 31.6266 40.7458 29.4444 39.9712 27.4039C39.1966 25.3634 37.9958 23.5116 36.4489 21.9719C33.1529 18.6449 29.1649 17.3999 24.6169 18.8649V18.8669ZM55.4478 25.7319C55.1163 23.7315 54.3795 21.82 53.2828 20.1145C52.186 18.409 50.7524 16.9456 49.0699 15.8139C46.7533 14.2709 43.95 13.6343 41.1942 14.0257C38.4385 14.417 35.9231 15.8089 34.1278 17.9359C40.2278 21.6009 42.7068 27.1779 42.8398 34.0569C42.9555 34.0738 43.072 34.0849 43.1888 34.09C45.7888 34.09 48.3889 34.0959 50.9889 34.0849C51.3855 34.0908 51.7811 34.0447 52.1658 33.9479C53.0033 33.7067 53.7603 33.2441 54.3569 32.6087C54.9535 31.9734 55.3677 31.1889 55.5558 30.3379C55.9067 28.8172 55.8696 27.2326 55.4478 25.7299V25.7319Z" fill="#E27820"/>
</svg>
