<svg width="32" height="42" viewBox="0 0 32 42" fill="none" xmlns="http://www.w3.org/2000/svg">
<path d="M18.2344 38.882C17.4734 38.877 16.7114 38.882 15.9504 38.882C15.1894 38.882 14.4003 38.882 13.6263 38.882C13.4647 38.8738 13.3032 38.8987 13.1514 38.955C12.9997 39.0112 12.8609 39.0978 12.7437 39.2094C12.6264 39.3209 12.533 39.455 12.4692 39.6038C12.4054 39.7525 12.3726 39.9126 12.3726 40.0745C12.3726 40.2363 12.4054 40.3964 12.4692 40.5452C12.533 40.6939 12.6264 40.8282 12.7437 40.9397C12.8609 41.0512 12.9997 41.1377 13.1514 41.194C13.3032 41.2502 13.4647 41.2751 13.6263 41.267C15.1597 41.2723 16.696 41.2723 18.2354 41.267C18.397 41.2751 18.5586 41.2502 18.7103 41.194C18.8621 41.1377 19.0008 41.0512 19.118 40.9397C19.2353 40.8282 19.3287 40.6939 19.3925 40.5452C19.4563 40.3964 19.4892 40.2363 19.4892 40.0745C19.4892 39.9126 19.4563 39.7525 19.3925 39.6038C19.3287 39.455 19.2353 39.3209 19.118 39.2094C19.0008 39.0978 18.8621 39.0112 18.7103 38.955C18.5586 38.8987 18.396 38.8738 18.2344 38.882ZM9.65137 16.566C9.41737 16.348 9.39536 16.188 9.64136 15.959C10.0744 15.559 10.4924 15.137 10.8944 14.705C11.1085 14.4765 11.2242 14.1729 11.2163 13.8599C11.2085 13.5468 11.0777 13.2494 10.8524 13.032C10.6349 12.8156 10.3418 12.6925 10.0351 12.6886C9.7284 12.6847 9.43224 12.8003 9.20936 13.011C8.37869 13.811 7.5617 14.6287 6.75837 15.464C6.55239 15.675 6.43649 15.9577 6.43519 16.2526C6.43388 16.5474 6.54725 16.8312 6.75135 17.0439C7.56068 17.8879 8.38739 18.715 9.23139 19.525C9.39921 19.6874 9.61401 19.7924 9.84516 19.8253C10.0763 19.8582 10.312 19.8171 10.5184 19.708C10.7399 19.6049 10.9291 19.4433 11.0656 19.2407C11.2022 19.0381 11.281 18.802 11.2934 18.558C11.1612 18.2705 11.0014 17.9966 10.8164 17.74C10.4499 17.3275 10.061 16.9356 9.65137 16.566ZM30.9294 12.782C30.2546 9.928 28.784 7.32402 26.6884 5.27246C24.5927 3.22091 21.9581 1.806 19.0904 1.19202C18.4904 1.06402 17.8784 0.983005 17.2714 0.880005H14.5904C14.1904 0.942005 13.7904 0.989017 13.3904 1.06702C10.8874 1.47822 8.52612 2.50613 6.51966 4.05798C4.5132 5.60983 2.92464 7.63683 1.89735 9.95605C0.564137 12.8 0.178598 15.9967 0.79737 19.076C1.31671 21.9664 2.67274 24.6408 4.69739 26.7679C6.08017 28.2537 7.74615 29.4479 9.59736 30.28C9.73259 30.326 9.84792 30.4171 9.92402 30.538C10.0001 30.6588 10.0324 30.8021 10.0154 30.944C9.99939 32.364 10.0064 33.783 10.0084 35.202C9.9831 35.383 10.0002 35.5673 10.0582 35.7406C10.1163 35.9139 10.2137 36.0712 10.3429 36.2004C10.4721 36.3296 10.6296 36.4271 10.8028 36.4851C10.9761 36.5432 11.1604 36.5603 11.3414 36.535C14.4034 36.535 17.465 36.535 20.5264 36.535C20.7074 36.5599 20.8917 36.5424 21.0648 36.484C21.2379 36.4256 21.3951 36.3277 21.5241 36.1982C21.653 36.0687 21.7501 35.9111 21.8077 35.7377C21.8654 35.5643 21.8821 35.3799 21.8564 35.199C21.8564 33.78 21.8664 32.361 21.8503 30.942C21.8342 30.8002 21.8669 30.657 21.9431 30.5363C22.0192 30.4155 22.1344 30.3244 22.2694 30.278C22.7863 30.0498 23.2895 29.7917 23.7764 29.505C26.5595 27.8625 28.7523 25.3824 30.0414 22.4189C31.3883 19.3915 31.7004 16.0046 30.9294 12.782ZM26.0693 24.334C24.6275 26.1784 22.6985 27.5826 20.5004 28.3879C20.3366 28.4157 20.1799 28.4757 20.0394 28.5643C19.8988 28.6529 19.7771 28.7684 19.6814 28.9042C19.5857 29.04 19.5178 29.1934 19.4816 29.3556C19.4454 29.5177 19.4415 29.6854 19.4703 29.849C19.4703 31.124 19.4604 32.399 19.4753 33.674C19.4753 34.028 19.3754 34.163 19.0034 34.156C17.9794 34.137 16.9534 34.15 15.9284 34.15H13.1284C12.3924 34.15 12.3924 34.1499 12.3914 33.3929V29.844C12.3914 28.984 12.2124 28.71 11.3914 28.402C10.1437 27.9418 8.97685 27.2868 7.93439 26.4611C6.60721 25.4397 5.49501 24.1659 4.66181 22.7131C3.82861 21.2604 3.29081 19.6573 3.07935 17.996C2.83305 16.3003 2.92522 14.5727 3.35053 12.9128C3.77585 11.253 4.52592 9.69405 5.55732 8.32581C6.58872 6.95757 7.88105 5.80725 9.35963 4.94141C10.8382 4.07556 12.4737 3.5113 14.1716 3.28125C15.8696 3.0512 17.5962 3.16 19.2519 3.6012C20.9076 4.0424 22.4593 4.80722 23.8176 5.85168C25.1759 6.89615 26.3138 8.19948 27.1654 9.68628C28.0171 11.1731 28.5656 12.814 28.7794 14.514C29.031 16.2493 28.9201 18.0178 28.4536 19.708C27.9872 21.3982 27.1753 22.9734 26.0693 24.334ZM17.2814 7.979C16.9787 7.93273 16.6699 8.00503 16.4193 8.18091C16.1687 8.35679 15.9957 8.62263 15.9363 8.92297C15.8983 9.08997 15.8744 9.25897 15.8464 9.42297C15.225 13.113 14.6047 16.8034 13.9854 20.494C13.8314 21.412 13.6854 22.332 13.5604 23.079C13.5504 23.936 13.9454 24.449 14.5404 24.532C14.6964 24.5598 14.8565 24.5565 15.0113 24.5225C15.1661 24.4884 15.3127 24.4242 15.4428 24.3335C15.5728 24.2428 15.6836 24.1274 15.769 23.9938C15.8544 23.8602 15.9126 23.7111 15.9404 23.5551C15.9724 23.4281 15.9934 23.2979 16.0154 23.1689C16.6361 19.4263 17.256 15.683 17.8754 11.939C18.0264 11.02 18.1954 10.101 18.2874 9.17603C18.312 8.88403 18.2201 8.59409 18.0316 8.36975C17.843 8.14542 17.5733 8.00494 17.2814 7.979ZM22.7364 13.0861C22.6242 12.9754 22.4913 12.8878 22.3452 12.8285C22.1992 12.7692 22.0429 12.7392 21.8853 12.7402C21.7276 12.7413 21.5717 12.7734 21.4265 12.8347C21.2813 12.896 21.1496 12.9853 21.0389 13.0975C20.9282 13.2097 20.8407 13.3426 20.7813 13.4886C20.722 13.6347 20.692 13.791 20.6931 13.9486C20.6941 14.1062 20.7262 14.2621 20.7875 14.4073C20.8489 14.5526 20.9381 14.6843 21.0504 14.795C21.4174 15.172 21.7784 15.555 22.1684 15.906C22.4434 16.155 22.4744 16.336 22.1804 16.599C21.7614 16.976 21.3694 17.385 20.9804 17.799C20.8098 17.9669 20.6964 18.1843 20.6558 18.4202C20.6153 18.6561 20.6498 18.8987 20.7544 19.114C20.8545 19.3375 21.0136 19.5295 21.2146 19.6694C21.4156 19.8093 21.651 19.8917 21.8954 19.908C22.1967 19.7765 22.4816 19.6104 22.7444 19.413C23.5184 18.683 24.2614 17.921 25.0084 17.163C25.1361 17.0522 25.2388 16.9155 25.3096 16.762C25.3804 16.6084 25.4177 16.4415 25.4189 16.2725C25.4201 16.1034 25.3853 15.9359 25.3168 15.7814C25.2482 15.6268 25.1475 15.4886 25.0214 15.376C24.266 14.6046 23.5044 13.8414 22.7364 13.0861Z" fill="#E27820"/>
</svg>
