<svg width="44" height="33" viewBox="0 0 44 33" fill="none" xmlns="http://www.w3.org/2000/svg">
<path d="M18.9249 3.53301L2.62985 0.477008C2.32012 0.418978 2.0014 0.429911 1.69637 0.509021C1.39133 0.588131 1.10747 0.733491 0.864975 0.934741C0.622483 1.13599 0.427321 1.38819 0.29335 1.67342C0.159379 1.95865 0.0898903 2.26988 0.0898438 2.58501V27.04C0.0899136 27.5401 0.264768 28.0243 0.584152 28.4091C0.903536 28.7939 1.34737 29.0549 1.83885 29.147L18.1389 32.203C18.4485 32.2611 18.7672 32.2502 19.0722 32.171C19.3772 32.0919 19.661 31.9466 19.9034 31.7453C20.1458 31.544 20.3409 31.2918 20.4747 31.0065C20.6086 30.7213 20.6779 30.4101 20.6778 30.095V5.64003C20.6778 5.13937 20.5024 4.65449 20.1822 4.26961C19.862 3.88473 19.4172 3.62412 18.9249 3.53301ZM40.5198 0.477008L24.2249 3.53301C23.7334 3.62513 23.2895 3.88616 22.9702 4.27092C22.6508 4.65568 22.4759 5.13999 22.4759 5.64003V30.1C22.4758 30.4151 22.5451 30.7263 22.679 31.0116C22.8128 31.2968 23.0079 31.549 23.2503 31.7503C23.4927 31.9516 23.7765 32.0969 24.0815 32.176C24.3865 32.2552 24.7052 32.2661 25.0149 32.208L41.3148 29.152C41.8063 29.0599 42.2502 28.7989 42.5695 28.4141C42.8889 28.0294 43.0638 27.5451 43.0638 27.045V2.58501C43.0639 2.26948 42.9944 1.95783 42.8602 1.67226C42.726 1.38669 42.5304 1.13423 42.2874 0.93291C42.0445 0.731588 41.7601 0.58636 41.4546 0.507556C41.149 0.428752 40.8299 0.418314 40.5198 0.477008Z" fill="#E27820"/>
</svg>
