<svg width="12" height="19" viewBox="0 0 12 19" fill="none" xmlns="http://www.w3.org/2000/svg">
<path d="M11.3 14.583C10.8623 15.2429 10.2446 15.7635 9.52004 16.083C8.62679 16.4785 7.65658 16.6698 6.68005 16.643V18.243H5.82104V16.6C4.52881 16.5404 3.2874 16.079 2.27004 15.28C1.81997 14.9069 1.45308 14.4436 1.193 13.92C0.932924 13.3964 0.785439 12.8241 0.760048 12.24H4.40005C4.42695 12.6356 4.57696 13.0129 4.82905 13.319C5.08663 13.6199 5.434 13.8303 5.82005 13.919V10.74C5.59205 10.672 5.44604 10.626 5.37904 10.6C4.56278 10.3757 3.76426 10.0913 2.99004 9.74902C2.36197 9.45654 1.81326 9.01755 1.39005 8.46899C0.953127 7.82035 0.719727 7.05606 0.719727 6.27399C0.719727 5.49191 0.953127 4.72763 1.39005 4.07898C1.85845 3.44932 2.49177 2.96139 3.22005 2.66901C4.04601 2.3315 4.92788 2.15171 5.82005 2.13898V0.5H6.67905V2.15997C7.95124 2.18145 9.18107 2.62068 10.179 3.40997C10.6075 3.77461 10.9577 4.22223 11.2086 4.72577C11.4595 5.22931 11.6059 5.77841 11.639 6.34003H7.93905C7.90242 5.98207 7.76356 5.64221 7.53905 5.36102C7.31472 5.10075 7.01361 4.91834 6.67905 4.84003V7.96002L7.29905 8.15997C8.10769 8.4044 8.89939 8.70172 9.66904 9.04999C10.285 9.34434 10.8232 9.77939 11.24 10.32C11.7036 10.957 11.9364 11.733 11.9 12.52C11.9055 13.2515 11.6969 13.9686 11.3 14.583ZM4.75005 6.99402C5.06192 7.28222 5.42524 7.50918 5.82104 7.66302V4.763C5.43433 4.76462 5.05986 4.89874 4.76005 5.14301C4.63194 5.26246 4.53154 5.40853 4.46589 5.57092C4.40024 5.73331 4.37094 5.90809 4.38004 6.08301C4.37641 6.25214 4.40746 6.42023 4.47127 6.5769C4.53507 6.73358 4.62929 6.87554 4.75005 6.99402ZM7.82104 13.614C7.95923 13.4855 8.06822 13.3288 8.14068 13.1546C8.21313 12.9804 8.24736 12.7926 8.24104 12.604C8.24523 12.4292 8.21167 12.2555 8.14264 12.0948C8.07361 11.9342 7.97074 11.7903 7.84105 11.673C7.50019 11.3834 7.10619 11.1629 6.68105 11.024V14.024C7.09894 14.0328 7.50432 13.8868 7.82104 13.614Z" fill="white"/>
</svg>
