<svg width="55" height="29" viewBox="0 0 55 29" fill="none" xmlns="http://www.w3.org/2000/svg">
<path d="M27.736 10.0551C25.985 8.98405 24.03 8.84005 22.704 9.87305C20.811 11.348 20.923 14.6581 22.954 17.2661C23.6644 18.1947 24.579 18.9475 25.627 19.4661C26.2716 19.8261 26.9976 20.0151 27.736 20.0151C28.4743 20.0151 29.2004 19.8261 29.845 19.4661C30.8929 18.9475 31.8075 18.1947 32.518 17.2661C34.55 14.6581 34.662 11.348 32.768 9.87305C31.443 8.84005 29.488 8.98405 27.736 10.0551ZM54.908 5.49805C54.908 4.89585 54.7893 4.29957 54.5589 3.74323C54.3284 3.18688 53.9906 2.68139 53.5647 2.25562C53.1388 1.82985 52.6333 1.49214 52.0769 1.26178C51.5205 1.03142 50.9242 0.912955 50.322 0.913086C50.275 0.913086 50.232 0.925087 50.185 0.926087C50.138 0.927087 50.095 0.913086 50.048 0.913086H5.42398C5.37698 0.913086 5.33396 0.925087 5.28696 0.926087C5.23996 0.927087 5.19696 0.913086 5.14996 0.913086C4.54777 0.912955 3.95144 1.03142 3.39505 1.26178C2.83866 1.49214 2.33309 1.82985 1.90723 2.25562C1.48136 2.68139 1.14357 3.18688 0.913086 3.74323C0.682606 4.29957 0.563965 4.89585 0.563965 5.49805C0.563965 5.54505 0.576972 5.58907 0.577972 5.63507C0.578972 5.68107 0.563965 5.72607 0.563965 5.77307V23.4131C0.563965 23.4601 0.576972 23.503 0.577972 23.55C0.578972 23.597 0.563965 23.6401 0.563965 23.6871C0.563965 24.2893 0.682587 24.8857 0.913055 25.4421C1.14352 25.9985 1.48132 26.504 1.90717 26.9299C2.33301 27.3557 2.83859 27.6935 3.39499 27.924C3.95139 28.1544 4.54772 28.2731 5.14996 28.2731C5.19696 28.2731 5.23996 28.26 5.28696 28.259C5.33396 28.258 5.37698 28.2731 5.42398 28.2731H50.048C50.095 28.2731 50.138 28.26 50.185 28.259C50.232 28.258 50.275 28.2731 50.322 28.2731C51.5382 28.2731 52.7047 27.7899 53.5648 26.9299C54.4248 26.0698 54.908 24.9034 54.908 23.6871C54.908 23.6401 54.895 23.596 54.894 23.55C54.893 23.504 54.908 23.4591 54.908 23.4131V5.77307C54.908 5.72607 54.895 5.68205 54.894 5.63605C54.893 5.59005 54.908 5.54506 54.908 5.50006V5.49805ZM51.908 19.3981C51.0875 19.0849 50.194 19.0159 49.3351 19.1994C48.4763 19.3829 47.6889 19.8109 47.068 20.4319C46.4471 21.053 46.0192 21.8404 45.8359 22.6993C45.6526 23.5581 45.7217 24.4516 46.035 25.272H9.43497C9.74776 24.4516 9.81657 23.5583 9.63309 22.6997C9.44961 21.8411 9.02167 21.0539 8.40088 20.433C7.78009 19.8121 6.99295 19.384 6.13437 19.2004C5.27578 19.0168 4.38243 19.0854 3.56198 19.3981V9.78503C4.38235 10.098 5.27573 10.167 6.1344 9.98352C6.99307 9.80009 7.78032 9.37215 8.40118 8.75128C9.02205 8.13041 9.45002 7.34316 9.63345 6.4845C9.81689 5.62583 9.74795 4.73241 9.43497 3.91205H46.035C45.8411 4.41821 45.7395 4.95506 45.735 5.49707C45.7294 6.23742 45.9046 6.96794 46.2452 7.62531C46.5858 8.28267 47.0816 8.84704 47.6896 9.26947C48.2977 9.6919 48.9996 9.95965 49.7345 10.0495C50.4694 10.1393 51.2151 10.0485 51.907 9.78503L51.908 19.3981Z" fill="#E27820"/>
</svg>
