<svg width="8" height="12" viewBox="0 0 8 12" fill="none" xmlns="http://www.w3.org/2000/svg">
<path d="M0.646011 6.86597L0.661011 6.84894L1.35202 7.26697C2.16202 7.7583 2.97169 8.24994 3.78102 8.74194C3.80875 8.76351 3.84289 8.77521 3.87802 8.77521C3.91316 8.77521 3.94729 8.76351 3.97502 8.74194C4.95702 8.12928 5.93969 7.51827 6.92302 6.90894C6.95578 6.88648 6.99355 6.87239 7.03302 6.86792L3.87802 11.3549C2.79335 9.85159 1.71601 8.3553 0.646011 6.86597ZM3.78102 8.13995C2.75302 7.53995 1.72368 6.93997 0.693008 6.33997C0.660008 6.32097 0.628008 6.29891 0.583008 6.27191L3.87802 0.892944L7.17102 6.26996C7.13902 6.29196 7.11202 6.31194 7.08502 6.32794C6.04902 6.93261 5.01302 7.5373 3.97702 8.14197C3.94703 8.161 3.91251 8.17164 3.87701 8.17291C3.84271 8.17035 3.80965 8.15903 3.78102 8.13995Z" fill="white"/>
</svg>
