<svg width="16" height="15" viewBox="0 0 16 15" fill="none" xmlns="http://www.w3.org/2000/svg">
<path d="M10.42 10.833C10.9725 10.4609 11.4009 9.93184 11.65 9.31406H15.25C14.9714 10.8219 14.1627 12.1803 12.97 13.144C11.6956 14.1261 10.118 14.6319 8.51004 14.574C6.96031 14.6244 5.4398 14.1443 4.20004 13.213C3.02346 12.2911 2.20057 10.9918 1.87003 9.53403H0.290039V7.95402H1.63004C1.61604 7.82102 1.61002 7.62702 1.61002 7.37302C1.607 7.18647 1.61369 6.99992 1.63004 6.81406H0.290039V5.23405H1.87003C2.19611 3.76865 3.0194 2.46129 4.20004 1.53403C5.4398 0.602792 6.96031 0.122628 8.51004 0.17301C10.1164 0.114769 11.693 0.616796 12.97 1.59305C14.1671 2.5576 14.9766 3.92123 15.25 5.43406H11.65C11.405 4.80825 10.9762 4.27129 10.42 3.89402C9.83571 3.51103 9.14848 3.31535 8.45004 3.33304C7.83018 3.32359 7.22135 3.49754 6.70004 3.83304C6.17802 4.17672 5.76513 4.66244 5.51004 5.23301H9.03003V6.81302H5.11002C5.0937 6.99889 5.08703 7.18549 5.09003 7.37205C5.08685 7.56593 5.09352 7.75984 5.11002 7.95304H9.03003V9.53306H5.53003C5.78623 10.0919 6.19531 10.5669 6.71002 10.9031C7.22943 11.2335 7.83454 11.4039 8.45004 11.393C9.14838 11.411 9.8356 11.2157 10.42 10.833Z" fill="white"/>
</svg>
