<svg width="38" height="33" viewBox="0 0 38 33" fill="none" xmlns="http://www.w3.org/2000/svg">
<path d="M23.7433 6.17198C22.3113 3.89038 20.1758 2.13664 17.6593 1.17555C15.1428 0.214468 12.382 0.0982282 9.79358 0.844377C7.20521 1.59053 4.92985 3.15854 3.3111 5.31169C1.69235 7.46484 0.818098 10.0862 0.820317 12.78V25.2H11.1283C10.4075 23.1128 10.1774 20.8875 10.4559 18.6969C10.7344 16.5064 11.5141 14.4094 12.7343 12.569C13.9544 10.7285 15.5823 9.19403 17.4916 8.08461C19.4009 6.9752 21.5401 6.32072 23.7433 6.17198ZM7.71534 13.915C7.49085 13.915 7.27137 13.8484 7.08472 13.7237C6.89807 13.599 6.7526 13.4217 6.66669 13.2143C6.58079 13.0069 6.55832 12.7787 6.60212 12.5585C6.64591 12.3384 6.75399 12.1362 6.91272 11.9774C7.07146 11.8187 7.27373 11.7106 7.4939 11.6668C7.71407 11.623 7.94227 11.6455 8.14966 11.7314C8.35706 11.8173 8.53429 11.9628 8.659 12.1494C8.78372 12.336 8.85028 12.5555 8.85028 12.78C8.85028 13.081 8.73074 13.3697 8.51789 13.5826C8.30503 13.7954 8.01636 13.915 7.71534 13.915ZM24.7613 8.11498C21.4673 8.11498 18.3083 9.42353 15.9791 11.7527C13.6499 14.0819 12.3413 17.241 12.3413 20.535C12.3413 22.166 12.6626 23.7811 13.2867 25.2879C13.9109 26.7948 14.8258 28.1639 15.9791 29.3172C17.1324 30.4706 18.5015 31.3854 20.0084 32.0096C21.5152 32.6337 23.1303 32.955 24.7613 32.955H37.1823V20.54C37.1823 18.9089 36.861 17.2937 36.2368 15.7868C35.6126 14.2799 34.6976 12.9107 33.5442 11.7574C32.3908 10.6041 31.0215 9.68921 29.5145 9.06511C28.0076 8.44101 26.3924 8.11985 24.7613 8.11998V8.11498ZM19.9613 21.565C19.7368 21.565 19.5174 21.4984 19.3308 21.3737C19.1441 21.249 18.9986 21.0717 18.9127 20.8643C18.8268 20.6569 18.8043 20.4287 18.8481 20.2086C18.8919 19.9884 19 19.7862 19.1588 19.6274C19.3175 19.4687 19.5197 19.3606 19.7399 19.3168C19.96 19.273 20.1882 19.2955 20.3956 19.3814C20.603 19.4673 20.7803 19.6128 20.905 19.7994C21.0297 19.9861 21.0963 20.2055 21.0963 20.43C21.097 20.5795 21.068 20.7278 21.0112 20.8661C20.9544 21.0045 20.8709 21.1302 20.7653 21.2361C20.6598 21.3421 20.5343 21.4261 20.3961 21.4834C20.258 21.5407 20.1099 21.5701 19.9603 21.57L19.9613 21.565ZM24.7613 21.565C24.5368 21.565 24.3174 21.4984 24.1307 21.3737C23.9441 21.249 23.7986 21.0717 23.7127 20.8643C23.6268 20.6569 23.6043 20.4287 23.6481 20.2086C23.6919 19.9884 23.8 19.7862 23.9587 19.6274C24.1175 19.4687 24.3197 19.3606 24.5399 19.3168C24.76 19.273 24.9883 19.2955 25.1957 19.3814C25.4031 19.4673 25.5803 19.6128 25.705 19.7994C25.8297 19.9861 25.8963 20.2055 25.8963 20.43C25.897 20.5795 25.8681 20.7278 25.8113 20.8661C25.7545 21.0045 25.6709 21.1302 25.5653 21.2361C25.4597 21.3421 25.3343 21.4261 25.1961 21.4834C25.058 21.5407 24.9099 21.5701 24.7603 21.57L24.7613 21.565ZM29.5613 21.565C29.3368 21.565 29.1174 21.4984 28.9307 21.3737C28.7441 21.249 28.5986 21.0717 28.5127 20.8643C28.4268 20.6569 28.4043 20.4287 28.4481 20.2086C28.4919 19.9884 28.6 19.7862 28.7587 19.6274C28.9175 19.4687 29.1197 19.3606 29.3399 19.3168C29.5601 19.273 29.7883 19.2955 29.9957 19.3814C30.2031 19.4673 30.3803 19.6128 30.505 19.7994C30.6297 19.9861 30.6963 20.2055 30.6963 20.43C30.697 20.5795 30.6681 20.7278 30.6113 20.8661C30.5545 21.0045 30.4709 21.1302 30.3653 21.2361C30.2597 21.3421 30.1342 21.4261 29.9961 21.4834C29.858 21.5407 29.7099 21.5701 29.5603 21.57L29.5613 21.565Z" fill="#E27820"/>
</svg>
