<svg width="52" height="52" viewBox="0 0 52 52" fill="none" xmlns="http://www.w3.org/2000/svg">
<path d="M26.175 4.05408C30.4755 4.05408 34.6795 5.32937 38.2553 7.71863C41.8311 10.1079 44.6181 13.5039 46.2638 17.4771C47.9096 21.4502 48.3402 25.8222 47.5012 30.0402C46.6622 34.2581 44.5913 38.1325 41.5503 41.1735C38.5094 44.2144 34.635 46.2853 30.417 47.1243C26.1991 47.9633 21.8271 47.5327 17.8539 45.887C13.8807 44.2412 10.4848 41.4542 8.09551 37.8784C5.70625 34.3026 4.43102 30.0987 4.43102 25.7981C4.43102 20.0312 6.72188 14.5006 10.7997 10.4228C14.8775 6.345 20.4081 4.05408 26.175 4.05408ZM26.175 0.0540771C21.0833 0.0540771 16.1059 1.56397 11.8724 4.39276C7.63879 7.22155 4.33912 11.2422 2.39061 15.9463C0.442112 20.6504 -0.0676893 25.8266 0.925649 30.8205C1.91899 35.8143 4.37088 40.4015 7.97124 44.0018C11.5716 47.6022 16.1587 50.0541 21.1526 51.0474C26.1464 52.0408 31.3227 51.531 36.0268 49.5825C40.7309 47.634 44.7516 44.3343 47.5804 40.1007C50.4092 35.8671 51.919 30.8898 51.919 25.7981C51.9113 18.9727 49.1966 12.4291 44.3703 7.60284C39.544 2.77657 33.0004 0.0617528 26.175 0.0540771Z" fill="url(#paint0_linear_595_3)"/>
<path d="M30.1561 22.4681C30.007 22.4669 29.8593 22.4953 29.7213 22.5515C29.5832 22.6077 29.4577 22.6907 29.3519 22.7956C29.2461 22.9006 29.1622 23.0254 29.1049 23.163C29.0476 23.3006 29.0181 23.4481 29.0181 23.5971C29.024 23.8938 29.1445 24.1767 29.3544 24.3864C29.5644 24.5962 29.8473 24.7165 30.144 24.7221C30.2931 24.7218 30.4406 24.6919 30.5781 24.6344C30.7156 24.5769 30.8404 24.4929 30.9454 24.3871C31.0503 24.2813 31.1334 24.1558 31.1898 24.0179C31.2462 23.8799 31.2748 23.7322 31.274 23.5832C31.2747 23.4363 31.2462 23.2907 31.1902 23.1549C31.1343 23.0192 31.0519 22.8959 30.9479 22.7922C30.8439 22.6884 30.7204 22.6064 30.5845 22.5508C30.4485 22.4952 30.3029 22.4671 30.1561 22.4681ZM32.3561 22.5021C32.6536 22.504 32.9399 22.3889 33.1534 22.1817C33.3668 21.9744 33.4903 21.6916 33.4971 21.3941C33.4968 21.0918 33.3774 20.8018 33.1648 20.5869C32.9521 20.372 32.6634 20.2495 32.3611 20.2461C32.0636 20.2493 31.7792 20.3696 31.5698 20.5809C31.3603 20.7922 31.2426 21.0776 31.2421 21.3752C31.2401 21.5224 31.2674 21.6686 31.3224 21.8053C31.3774 21.9419 31.4589 22.0663 31.5624 22.1712C31.6658 22.276 31.7891 22.3592 31.925 22.4161C32.0609 22.4729 32.2068 22.5021 32.3541 22.5021H32.3561ZM21.936 22.8102C21.466 22.8032 20.9961 22.8102 20.4891 22.8102C20.4891 22.5822 20.4891 22.3961 20.4891 22.2101C20.4891 21.8721 20.5051 21.5311 20.4681 21.1961C20.4478 21.0032 20.3526 20.826 20.203 20.7026C20.0534 20.5791 19.8613 20.5193 19.6681 20.5361C19.479 20.5431 19.2996 20.6215 19.166 20.7555C19.0324 20.8894 18.9545 21.0691 18.9481 21.2582C18.9361 21.4582 18.9421 21.6672 18.9421 21.8722C18.9421 22.1792 18.9421 22.4872 18.9421 22.8102H17.5101C17.3669 22.8001 17.2237 22.8284 17.095 22.892C16.9664 22.9556 16.857 23.0523 16.7781 23.1722C16.7031 23.2863 16.66 23.4184 16.6533 23.5548C16.6466 23.6912 16.6765 23.8269 16.74 23.9479C16.8035 24.0688 16.8981 24.1706 17.0142 24.2425C17.1303 24.3145 17.2635 24.3541 17.4001 24.3572C17.9001 24.3732 18.409 24.3572 18.928 24.3572C18.934 24.4792 18.9411 24.5661 18.9421 24.6571C18.9421 25.0571 18.9361 25.4572 18.9421 25.8572C18.9399 25.9584 18.9577 26.059 18.9944 26.1534C19.0312 26.2478 19.0861 26.334 19.1562 26.4071C19.2263 26.4803 19.3101 26.5389 19.4028 26.5796C19.4955 26.6204 19.5953 26.6425 19.6965 26.6446C19.901 26.649 20.0989 26.572 20.2466 26.4305C20.3197 26.3604 20.3783 26.2766 20.4191 26.1839C20.4598 26.0912 20.4819 25.9914 20.4841 25.8901C20.5011 25.6151 20.4891 25.3381 20.4891 25.0621C20.4891 24.8351 20.4891 24.6082 20.4891 24.3622C21.0211 24.3622 21.51 24.3702 21.998 24.3622C22.1144 24.3629 22.2295 24.3372 22.3345 24.287C22.4394 24.2367 22.5316 24.1632 22.6039 24.0721C22.6763 23.9809 22.727 23.8745 22.7521 23.7608C22.7773 23.6472 22.7762 23.5293 22.7491 23.4161C22.7065 23.2352 22.6013 23.0752 22.4522 22.9643C22.3031 22.8534 22.1196 22.7988 21.9341 22.8102H21.936ZM39.709 26.2661C39.5026 24.3609 39.0688 22.4873 38.4171 20.6852C37.9093 19.3289 36.9565 18.185 35.7145 17.4403C34.4724 16.6956 33.0146 16.3941 31.579 16.5851C30.5167 16.7343 29.505 17.1336 28.6271 17.7502C27.7674 18.3447 26.7196 18.6033 25.6821 18.4771C24.9106 18.3776 24.1758 18.0887 23.5431 17.6361C22.6367 17.0086 21.5793 16.634 20.48 16.5511C19.0782 16.4293 17.6753 16.7733 16.4888 17.53C15.3024 18.2867 14.3988 19.4136 13.9181 20.7361C13.2765 22.5228 12.8482 24.379 12.6421 26.2661C12.5781 26.7661 12.5331 27.2741 12.4791 27.7771V29.6501C12.5331 30.0641 12.5791 30.4801 12.6431 30.8921C12.7603 31.8882 13.1277 32.8383 13.7111 33.6542C14.0896 34.1846 14.6132 34.5945 15.2189 34.8347C15.8247 35.0749 16.4869 35.1351 17.126 35.0082C18.1449 34.8059 19.0946 34.3452 19.884 33.6701C20.8163 32.921 21.6587 32.0663 22.394 31.1231C22.6424 30.7883 22.9629 30.5136 23.3317 30.3194C23.7006 30.1252 24.1085 30.0164 24.5251 30.0011C25.6201 29.9671 26.718 29.9671 27.813 30.0011C28.2296 30.0158 28.6376 30.1232 29.0073 30.3156C29.377 30.508 29.6991 30.7804 29.9501 31.1131C30.2881 31.5271 30.6371 31.9331 31.0041 32.3221C31.857 33.2863 32.8895 34.075 34.0441 34.6441C34.4908 34.8882 34.9839 35.0354 35.4914 35.076C35.9988 35.1167 36.5092 35.0499 36.9891 34.88C37.469 34.7102 37.9077 34.4411 38.2766 34.0903C38.6455 33.7395 38.9363 33.3149 39.1301 32.8442C39.53 31.9375 39.764 30.9664 39.821 29.9771C39.9138 28.7396 39.8756 27.4957 39.707 26.2661H39.709ZM38.269 29.9231C38.2243 30.6981 38.0432 31.4591 37.7341 32.1711C37.6367 32.4445 37.4822 32.694 37.2808 32.9029C37.0794 33.1118 36.8357 33.2754 36.566 33.3826C36.2964 33.4898 36.007 33.5383 35.7171 33.5248C35.4272 33.5112 35.1436 33.436 34.8851 33.3041C33.8863 32.8651 32.9944 32.2148 32.2711 31.3981C31.8811 30.9981 31.5101 30.5711 31.1551 30.1371C30.7281 29.5966 30.182 29.162 29.5595 28.8671C28.937 28.5722 28.2548 28.4251 27.566 28.4371C27.103 28.4371 26.6391 28.4371 26.1761 28.4371V28.4012C25.4201 28.4392 24.658 28.4271 23.912 28.5292C22.8572 28.6814 21.9032 29.2384 21.2521 30.0821C20.6023 30.9102 19.8673 31.6677 19.0591 32.3421C18.4508 32.8829 17.7201 33.2676 16.9301 33.4631C16.5454 33.559 16.1403 33.5305 15.7729 33.3818C15.4055 33.233 15.0947 32.9716 14.8851 32.6352C14.4624 31.9712 14.2075 31.2145 14.1421 30.4302C13.9253 28.549 14.0267 26.6447 14.4421 24.7972C14.6669 23.6091 14.979 22.4393 15.376 21.2972C15.6241 20.597 16.03 19.9633 16.5624 19.4453C17.0948 18.9274 17.7394 18.539 18.4461 18.3103C19.1528 18.0816 19.9028 18.0187 20.6377 18.1266C21.3726 18.2344 22.0729 18.5101 22.6841 18.9322C23.696 19.6742 24.9182 20.0743 26.173 20.0743C27.4279 20.0743 28.6501 19.6742 29.662 18.9322C30.2766 18.511 30.9797 18.2367 31.717 18.1305C32.4544 18.0244 33.2063 18.0892 33.9147 18.3199C34.623 18.5506 35.2689 18.941 35.8023 19.4611C36.3357 19.9812 36.7425 20.6168 36.9911 21.3191C37.5739 22.9464 37.9646 24.6362 38.1551 26.3542C38.3225 27.5362 38.36 28.7329 38.2671 29.9231H38.269ZM34.5781 22.4681C34.429 22.4655 34.2809 22.493 34.1427 22.5488C34.0045 22.6046 33.8788 22.6877 33.7733 22.793C33.6678 22.8983 33.5846 23.0238 33.5285 23.1619C33.4725 23.3 33.4448 23.4481 33.4471 23.5971C33.448 23.745 33.478 23.8912 33.5355 24.0275C33.5929 24.1638 33.6766 24.2874 33.7818 24.3913C33.887 24.4952 34.0117 24.5774 34.1486 24.6331C34.2856 24.6888 34.4322 24.7171 34.5801 24.7162C34.7279 24.7152 34.8742 24.6852 35.0104 24.6277C35.1467 24.5703 35.2703 24.4866 35.3742 24.3814C35.4781 24.2762 35.5603 24.1515 35.616 24.0146C35.6718 23.8776 35.7 23.731 35.699 23.5832C35.6988 23.4361 35.6695 23.2906 35.6129 23.1549C35.5563 23.0192 35.4734 22.896 35.3691 22.7925C35.2647 22.6889 35.141 22.6069 35.0049 22.5512C34.8688 22.4956 34.7231 22.4673 34.576 22.4681H34.5781ZM32.3721 24.6681C32.0792 24.6748 31.8004 24.7954 31.595 25.0043C31.3896 25.2132 31.2737 25.4939 31.2719 25.7868C31.2701 26.0798 31.3825 26.3619 31.5853 26.5733C31.7881 26.7847 32.0653 26.9088 32.358 26.9192C32.5086 26.9245 32.6586 26.8995 32.7994 26.8458C32.9401 26.7921 33.0687 26.7107 33.1774 26.6064C33.2861 26.5021 33.3727 26.3771 33.4323 26.2387C33.4918 26.1004 33.5229 25.9514 33.5239 25.8008C33.5248 25.6502 33.4955 25.501 33.4377 25.3619C33.3799 25.2227 33.2948 25.0966 33.1874 24.991C33.08 24.8854 32.9525 24.8024 32.8124 24.7469C32.6724 24.6915 32.5227 24.6647 32.3721 24.6681Z" fill="#118BC9"/>
<defs>
<linearGradient id="paint0_linear_595_3" x1="0.430969" y1="25.7981" x2="51.919" y2="25.7981" gradientUnits="userSpaceOnUse">
<stop stop-color="#139CE1"/>
<stop offset="0.023" stop-color="#0C6A9A"/>
<stop offset="0.186" stop-color="#124F6D"/>
<stop offset="0.343" stop-color="#18394A"/>
<stop offset="0.49" stop-color="#1B2A31"/>
<stop offset="0.624" stop-color="#1E2122"/>
<stop offset="0.732" stop-color="#1F1E1D" stop-opacity="0"/>
</linearGradient>
</defs>
</svg>
