<svg width="52" height="53" viewBox="0 0 52 53" fill="none" xmlns="http://www.w3.org/2000/svg">
<path d="M25.972 4.85608C30.2726 4.85608 34.4765 6.13137 38.0523 8.52063C41.6281 10.9099 44.4151 14.3059 46.0608 18.2791C47.7066 22.2522 48.1372 26.6242 47.2982 30.8422C46.4592 35.0601 44.3883 38.9344 41.3473 41.9754C38.3064 45.0164 34.432 47.0873 30.2141 47.9263C25.9961 48.7653 21.6241 48.3347 17.6509 46.689C13.6777 45.0432 10.2818 42.2562 7.89253 38.6804C5.50327 35.1046 4.22801 30.9007 4.22801 26.6001C4.22801 20.8332 6.51889 15.3026 10.5967 11.2248C14.6745 7.147 20.2051 4.85608 25.972 4.85608ZM25.972 0.856079C20.8803 0.856079 15.903 2.36598 11.6694 5.19476C7.43583 8.02355 4.13616 12.0442 2.18765 16.7483C0.239151 21.4524 -0.270666 26.6287 0.722672 31.6225C1.71601 36.6163 4.16789 41.2035 7.76825 44.8038C11.3686 48.4042 15.9558 50.8561 20.9496 51.8494C25.9435 52.8428 31.1197 52.333 35.8238 50.3845C40.5279 48.436 44.5486 45.1363 47.3774 40.9027C50.2061 36.6691 51.716 31.6918 51.716 26.6001C51.7081 19.7748 48.9932 13.2313 44.167 8.40509C39.3408 3.57887 32.7973 0.864019 25.972 0.856079Z" fill="url(#paint0_linear_567_2)"/>
<path d="M37.579 31.345C36.801 30.955 36.024 30.5631 35.242 30.1821C35.1618 30.1463 35.0898 30.0944 35.0306 30.0295C34.9714 29.9646 34.9262 29.8882 34.898 29.8051C34.388 28.4571 33.867 27.114 33.355 25.767C33.3269 25.6692 33.2772 25.5789 33.2095 25.5029C33.1418 25.4269 33.0579 25.3672 32.964 25.3281C29.4786 23.9401 25.9946 22.5487 22.512 21.1541C22.4156 21.1071 22.3064 21.0936 22.2015 21.1157C22.0967 21.1378 22.0022 21.1943 21.933 21.2761C21.522 21.6981 21.109 22.119 20.682 22.525C20.5827 22.6056 20.5145 22.7182 20.4892 22.8436C20.4638 22.9689 20.4828 23.0992 20.543 23.212C21.9256 26.6527 23.3026 30.0961 24.674 33.5421C24.7111 33.6454 24.7712 33.7389 24.8499 33.8155C24.9286 33.8921 25.0237 33.9498 25.128 33.9841C26.483 34.4971 27.834 35.022 29.19 35.535C29.269 35.5626 29.3414 35.6062 29.4027 35.6632C29.464 35.7202 29.5128 35.7892 29.546 35.866C29.924 36.6414 30.3093 37.412 30.702 38.178C30.7888 38.3118 30.8894 38.4361 31.002 38.549H31.258C31.3468 38.4837 31.4322 38.414 31.514 38.34C33.5807 36.2734 35.6473 34.2067 37.714 32.14C38.036 31.818 37.991 31.553 37.579 31.345ZM29.41 34.752C28.148 34.259 26.881 33.7771 25.62 33.2811C25.508 33.2335 25.4176 33.1462 25.366 33.036C24.048 29.7633 22.7333 26.489 21.422 23.213C21.34 23.013 21.416 22.913 21.568 22.822L26.836 28.088C26.168 29.518 26.391 30.7151 27.473 31.4581C27.8362 31.7039 28.2594 31.8461 28.6973 31.8696C29.1353 31.893 29.5713 31.7968 29.9587 31.5912C30.346 31.3857 30.6701 31.0785 30.8961 30.7027C31.1222 30.3269 31.2416 29.8966 31.2416 29.4581C31.2416 29.0195 31.1222 28.5893 30.8961 28.2134C30.6701 27.8376 30.346 27.5304 29.9587 27.3248C29.5713 27.1192 29.1353 27.023 28.6973 27.0465C28.2594 27.07 27.8362 27.2123 27.473 27.4581C25.7137 25.7001 23.956 23.9424 22.2 22.1851C22.285 22.0091 22.41 21.9851 22.62 22.0681C25.846 23.3661 29.0753 24.6573 32.308 25.942C32.3987 25.9726 32.481 26.0239 32.5485 26.0917C32.616 26.1596 32.6668 26.2422 32.697 26.3331C33.161 27.5691 33.639 28.801 34.119 30.033C34.1525 30.0948 34.1632 30.1664 34.1493 30.2353C34.1354 30.3042 34.0978 30.3661 34.043 30.41C32.6176 31.824 31.1986 33.2431 29.786 34.6671C29.7433 34.7231 29.6822 34.7624 29.6134 34.778C29.5447 34.7935 29.4727 34.7843 29.41 34.752ZM27.246 29.4661C27.2446 29.2563 27.2852 29.0483 27.3653 28.8544C27.4454 28.6605 27.5635 28.4846 27.7125 28.3369C27.8615 28.1893 28.0386 28.0729 28.2332 27.9946C28.4279 27.9163 28.6362 27.8777 28.846 27.881C29.0552 27.8817 29.2623 27.9236 29.4554 28.0045C29.6484 28.0853 29.8236 28.2034 29.9709 28.352C30.1183 28.5006 30.2348 28.6769 30.3139 28.8706C30.3931 29.0643 30.4332 29.2717 30.432 29.481C30.4297 29.903 30.2599 30.3068 29.96 30.6036C29.66 30.9004 29.2544 31.0658 28.8325 31.0635C28.4105 31.0613 28.0067 30.8915 27.71 30.5916C27.4132 30.2916 27.2477 29.886 27.25 29.4641L27.246 29.4661ZM31.215 37.377L30.238 35.424C31.758 33.905 33.267 32.399 34.792 30.876L36.743 31.8521L31.215 37.377ZM19.554 34.285C19.515 34.2357 19.4654 34.1959 19.4089 34.1685C19.3523 34.1411 19.2903 34.1268 19.2275 34.1268C19.1646 34.1268 19.1026 34.1411 19.0461 34.1685C18.9895 34.1959 18.9399 34.2357 18.901 34.285C18.743 34.44 18.601 34.612 18.45 34.785C17.0473 32.9077 16.2713 30.6364 16.2322 28.2933C16.1931 25.9501 16.8928 23.6541 18.232 21.731C18.6334 21.9375 19.09 22.011 19.5359 21.941C19.9818 21.871 20.394 21.6612 20.7128 21.3417C21.0316 21.0222 21.2407 20.6096 21.3097 20.1635C21.3788 19.7175 21.3043 19.261 21.097 18.86C23.0186 17.53 25.3088 16.8357 27.6455 16.8748C29.9822 16.9139 32.2479 17.6845 34.124 19.0781C33.982 19.2161 33.841 19.351 33.702 19.488C33.426 19.76 33.421 19.962 33.691 20.231C34.241 20.7804 34.7926 21.3277 35.346 21.873C35.3855 21.9331 35.4393 21.9824 35.5026 22.0165C35.5659 22.0506 35.6366 22.0684 35.7085 22.0684C35.7803 22.0684 35.8511 22.0506 35.9144 22.0165C35.9776 21.9824 36.0315 21.9331 36.071 21.873C36.6216 21.325 37.1713 20.7754 37.72 20.2241C37.986 19.9571 37.99 19.764 37.728 19.501C37.1753 18.943 36.6196 18.3874 36.061 17.834C36.0221 17.7763 35.9696 17.729 35.9081 17.6963C35.8467 17.6636 35.7781 17.6465 35.7085 17.6465C35.6388 17.6465 35.5703 17.6636 35.5088 17.6963C35.4474 17.729 35.3949 17.7763 35.356 17.834C35.147 18.044 34.956 18.266 34.769 18.462C33.0554 17.183 31.0369 16.3749 28.9141 16.1179C26.7914 15.8608 24.6383 16.164 22.669 16.9971C22.754 16.9071 22.81 16.846 22.869 16.788C23.498 16.161 24.131 15.5381 24.753 14.9041C24.8047 14.8345 24.8776 14.7836 24.9608 14.7591C25.0439 14.7346 25.1328 14.7377 25.214 14.7681C25.4799 14.8411 25.7628 14.8215 26.0162 14.7125C26.2695 14.6034 26.4782 14.4114 26.608 14.168C26.7417 13.9272 26.7924 13.649 26.7524 13.3765C26.7123 13.1039 26.5837 12.8521 26.3864 12.6599C26.1891 12.4677 25.934 12.3458 25.6605 12.3129C25.3869 12.2801 25.1102 12.338 24.873 12.478C24.6304 12.6182 24.4429 12.8368 24.3413 13.0978C24.2396 13.3589 24.23 13.6468 24.314 13.9141C24.3413 13.9783 24.3464 14.0499 24.3282 14.1173C24.3101 14.1848 24.2699 14.2441 24.214 14.286C22.9906 15.5033 21.7706 16.7231 20.554 17.9451C20.501 17.9981 20.444 18.045 20.392 18.093C19.9837 17.8283 19.4971 17.7116 19.0131 17.7623C18.5292 17.813 18.0773 18.0281 17.7328 18.3716C17.3883 18.7152 17.172 19.1666 17.12 19.6503C17.068 20.1341 17.1834 20.6211 17.447 21.03C16.147 22.33 14.87 23.6201 13.581 24.9041C13.5112 24.9514 13.4266 24.9717 13.343 24.9611C13.1775 24.9326 13.0106 24.9132 12.843 24.903C12.5676 24.919 12.3049 25.0237 12.094 25.2014C11.8831 25.3792 11.7354 25.6204 11.673 25.889V26.4531C11.706 26.5191 11.743 26.584 11.773 26.653C11.898 26.9421 12.1274 27.1735 12.4155 27.3008C12.7035 27.4282 13.029 27.4422 13.327 27.34C13.631 27.2419 13.885 27.0293 14.0352 26.7474C14.1854 26.4654 14.2201 26.1361 14.132 25.829C14.1022 25.7568 14.0967 25.6768 14.1161 25.6011C14.1356 25.5254 14.179 25.458 14.24 25.4091C14.94 24.7191 15.622 24.0161 16.331 23.3311C15.513 25.3006 15.2211 27.449 15.4841 29.5654C15.7471 31.6818 16.5558 33.6935 17.831 35.403C17.631 35.587 17.408 35.782 17.197 35.991C17.1407 36.0282 17.0943 36.0786 17.0617 36.1377C17.0292 36.1968 17.0114 36.2629 17.0101 36.3304C17.0087 36.3978 17.0237 36.4646 17.0538 36.525C17.0839 36.5854 17.1283 36.6376 17.183 36.6771C17.747 37.2477 18.3136 37.8143 18.883 38.377C18.9532 38.4389 19.0277 38.4957 19.106 38.5471H19.362C20.011 37.9061 20.662 37.27 21.307 36.623C21.3482 36.5845 21.3806 36.5376 21.402 36.4855C21.4235 36.4333 21.4334 36.3771 21.4313 36.3208C21.4291 36.2645 21.4148 36.2092 21.3894 36.1589C21.364 36.1085 21.328 36.0643 21.284 36.0291C20.712 35.4444 20.1353 34.863 19.554 34.285ZM35.692 18.704L36.839 19.853L35.71 20.973L34.567 19.829C34.934 19.463 35.324 19.073 35.692 18.704ZM25.516 13.132C25.5748 13.13 25.6333 13.14 25.6882 13.1613C25.743 13.1826 25.7929 13.2148 25.8349 13.256C25.877 13.2971 25.9102 13.3464 25.9327 13.4008C25.9551 13.4551 25.9663 13.5135 25.9656 13.5723C25.9648 13.6311 25.9521 13.6891 25.9283 13.7429C25.9045 13.7967 25.87 13.8451 25.827 13.8852C25.7839 13.9253 25.7332 13.9562 25.6778 13.9761C25.6225 13.996 25.5637 14.0045 25.505 14.001C25.3933 13.9945 25.2884 13.9451 25.2122 13.8632C25.136 13.7813 25.0942 13.6732 25.0956 13.5613C25.097 13.4494 25.1415 13.3424 25.2198 13.2625C25.2981 13.1825 25.4042 13.1358 25.516 13.132ZM19.211 18.5731C19.3799 18.5717 19.5474 18.6038 19.7039 18.6674C19.8604 18.7309 20.0028 18.8247 20.1229 18.9435C20.243 19.0622 20.3385 19.2035 20.4039 19.3593C20.4693 19.515 20.5033 19.6821 20.504 19.851C20.5069 20.02 20.476 20.188 20.4131 20.3449C20.3502 20.5018 20.2565 20.6446 20.1377 20.7648C20.0188 20.885 19.877 20.9802 19.7208 21.0448C19.5646 21.1094 19.397 21.1421 19.228 21.1411C19.059 21.1416 18.8916 21.1087 18.7354 21.0444C18.5791 20.9801 18.4371 20.8856 18.3175 20.7664C18.1978 20.6471 18.1029 20.5053 18.0381 20.3493C17.9733 20.1933 17.94 20.026 17.94 19.8571C17.944 19.52 18.0789 19.1977 18.316 18.9582C18.5531 18.7186 18.874 18.5806 19.211 18.5731ZM12.951 26.554C12.8389 26.5511 12.7325 26.5046 12.6544 26.4242C12.5762 26.3438 12.5327 26.2361 12.533 26.124C12.5301 26.0707 12.5385 26.0174 12.5575 25.9676C12.5766 25.9178 12.606 25.8725 12.6437 25.8348C12.6815 25.797 12.7267 25.7677 12.7766 25.7486C12.8264 25.7295 12.8797 25.7212 12.933 25.7241C13.0453 25.7219 13.1539 25.7642 13.2352 25.8417C13.3165 25.9193 13.3638 26.0258 13.367 26.1381C13.3692 26.1933 13.36 26.2484 13.3399 26.2999C13.3198 26.3514 13.2892 26.3981 13.2502 26.4372C13.2111 26.4763 13.1643 26.5069 13.1128 26.527C13.0613 26.5471 13.0062 26.5563 12.951 26.554ZM19.231 37.4921L18.084 36.335L19.243 35.1771L20.395 36.329L19.231 37.4921Z" fill="#CAB710"/>
<defs>
<linearGradient id="paint0_linear_567_2" x1="0.227997" y1="26.6001" x2="51.716" y2="26.6001" gradientUnits="userSpaceOnUse">
<stop stop-color="#D6C212"/>
<stop offset="0.02" stop-color="#9C8D0B"/>
<stop offset="0.183" stop-color="#6F6511"/>
<stop offset="0.341" stop-color="#4C4616"/>
<stop offset="0.489" stop-color="#33301A"/>
<stop offset="0.623" stop-color="#24221C"/>
<stop offset="0.732" stop-color="#1F1E1D" stop-opacity="0"/>
</linearGradient>
</defs>
</svg>
