<svg width="18" height="17" viewBox="0 0 18 17" fill="none" xmlns="http://www.w3.org/2000/svg">
<path d="M11.141 3.28705C11.2287 3.31983 11.3222 3.33423 11.4156 3.32928C11.5091 3.32434 11.6005 3.30015 11.6842 3.2583C11.7679 3.21645 11.8421 3.15785 11.9021 3.08606C11.9621 3.01427 12.0067 2.93085 12.0331 2.84106C12.1801 2.44106 12.3231 2.04707 12.4651 1.64807C12.4951 1.56407 12.51 1.47506 12.532 1.38806C12.5302 1.22705 12.4729 1.07162 12.3698 0.947937C12.2667 0.824252 12.1241 0.739859 11.966 0.709045C11.8089 0.679661 11.6464 0.70698 11.5074 0.786072C11.3685 0.865164 11.262 0.990914 11.207 1.14105C11.051 1.55205 10.907 1.96704 10.756 2.38104C10.7192 2.46551 10.7001 2.55662 10.6997 2.64874C10.6993 2.74086 10.7177 2.83209 10.7537 2.91687C10.7897 3.00165 10.8426 3.0782 10.9092 3.14185C10.9758 3.20549 11.0547 3.25489 11.141 3.28705ZM9.05003 2.92004C9.14061 2.9214 9.23057 2.90455 9.31449 2.87042C9.39841 2.83629 9.47457 2.78557 9.53849 2.72137C9.60241 2.65717 9.6528 2.58077 9.68656 2.4967C9.72033 2.41264 9.73678 2.32263 9.73502 2.23206C9.73502 2.01106 9.73502 1.79104 9.73502 1.57104C9.73502 1.35104 9.73502 1.11904 9.73502 0.894043C9.73502 0.714226 9.66363 0.541823 9.53648 0.414673C9.40933 0.287523 9.23686 0.216064 9.05705 0.216064C8.87723 0.216064 8.70476 0.287523 8.57761 0.414673C8.45047 0.541823 8.37907 0.714226 8.37907 0.894043C8.37507 1.34004 8.37507 1.78606 8.37907 2.23206C8.37707 2.32152 8.3929 2.41051 8.4257 2.49377C8.4585 2.57703 8.50757 2.65292 8.57005 2.71698C8.63253 2.78104 8.70718 2.83201 8.78959 2.86688C8.872 2.90176 8.96054 2.9198 9.05003 2.92004ZM6.10404 2.89404C6.16936 3.056 6.29483 3.18641 6.45414 3.25793C6.61345 3.32946 6.79423 3.33653 6.95866 3.27771C7.12308 3.21889 7.25836 3.09878 7.33616 2.94244C7.41396 2.78611 7.42824 2.60572 7.37602 2.43909C7.22602 1.99609 7.06406 1.55706 6.89506 1.12006C6.85286 1.0019 6.77651 0.898923 6.67576 0.824158C6.575 0.749393 6.45433 0.706221 6.32902 0.700073C6.21732 0.691185 6.10514 0.710025 6.00248 0.754944C5.89982 0.799863 5.80991 0.869443 5.74064 0.95752C5.67137 1.0456 5.62491 1.14941 5.60545 1.25977C5.58598 1.37012 5.59411 1.48363 5.62907 1.59009C5.77707 2.02809 5.93801 2.46204 6.10001 2.89404H6.10404ZM17.714 7.32507C17.6376 6.87184 17.4085 6.45837 17.0647 6.15332C16.7209 5.84827 16.2831 5.66998 15.824 5.64807C15.3438 5.61955 14.8625 5.61757 14.3821 5.64209C14.0912 5.65726 13.8003 5.61172 13.5279 5.50842C13.2556 5.40513 13.0077 5.24631 12.8 5.04205C12.2422 4.53669 11.5139 4.26099 10.7612 4.27026C10.0086 4.27954 9.28726 4.57309 8.74204 5.09204C7.85404 5.93904 6.99007 6.81108 6.14207 7.69208C5.78526 8.07156 5.58804 8.57373 5.59129 9.0946C5.59453 9.61548 5.79795 10.1151 6.15946 10.4901C6.52097 10.8651 7.0129 11.0867 7.5333 11.1091C8.05371 11.1314 8.56276 10.9527 8.95506 10.61C9.63106 9.99205 10.266 9.32906 10.904 8.67206C10.972 8.59914 11.0228 8.51189 11.0525 8.41675C11.0823 8.3216 11.0903 8.22098 11.076 8.12231C11.0617 8.02365 11.0255 7.92946 10.9699 7.84668C10.9144 7.7639 10.8409 7.69465 10.755 7.64404C10.6185 7.56061 10.4569 7.52804 10.2987 7.552C10.1405 7.57596 9.99578 7.65496 9.89005 7.77509C9.30905 8.35309 8.73103 8.93504 8.14903 9.51404C8.08866 9.58648 8.01379 9.64546 7.92924 9.68719C7.84469 9.72893 7.75233 9.75255 7.65812 9.75641C7.56391 9.76027 7.46993 9.74433 7.38224 9.70966C7.29456 9.67498 7.21512 9.62231 7.14903 9.55505C7.08252 9.48876 7.03043 9.40949 6.99595 9.32214C6.96147 9.2348 6.94536 9.14127 6.94865 9.04742C6.95193 8.95358 6.97449 8.86145 7.01499 8.77673C7.0555 8.69202 7.11308 8.61653 7.18406 8.55505C7.98406 7.75505 8.78402 6.95509 9.58402 6.15509C9.73234 5.99429 9.9112 5.86458 10.1101 5.77362C10.3091 5.68266 10.5242 5.63223 10.7428 5.62524C10.9615 5.61826 11.1793 5.65489 11.3836 5.73297C11.588 5.81106 11.7747 5.92907 11.933 6.08008C12.2595 6.39056 12.6456 6.63152 13.0679 6.78845C13.4902 6.94538 13.94 7.01499 14.3901 6.99304C14.8301 6.97104 15.273 6.98104 15.714 6.99304C15.8008 6.99105 15.8871 7.00632 15.9679 7.03796C16.0487 7.06961 16.1225 7.11704 16.1848 7.17743C16.2471 7.23781 16.2968 7.31001 16.331 7.38977C16.3652 7.46954 16.3832 7.5553 16.384 7.64209C16.3913 9.01742 16.3913 10.3921 16.384 11.7661C16.3887 11.9159 16.3384 12.0623 16.2427 12.1776C16.1469 12.2929 16.0122 12.3692 15.8641 12.3921C15.1641 12.4191 14.464 12.4011 13.764 12.4011C13.776 12.3561 13.786 12.3181 13.797 12.2811C13.926 11.9189 13.9485 11.5273 13.862 11.1527C13.7756 10.7781 13.5837 10.4361 13.3091 10.1671C13.1471 9.99405 12.9781 9.82605 12.8091 9.66705C12.7463 9.60187 12.6711 9.54989 12.5879 9.51422C12.5048 9.47855 12.4152 9.4599 12.3247 9.45935C12.2342 9.45881 12.1445 9.47638 12.061 9.51105C11.9774 9.54571 11.9015 9.59677 11.838 9.66119C11.7744 9.72562 11.7244 9.80211 11.6909 9.88617C11.6574 9.97023 11.641 10.0602 11.6428 10.1506C11.6446 10.2411 11.6644 10.3303 11.7012 10.413C11.738 10.4957 11.791 10.5702 11.857 10.6321C12.006 10.7871 12.1571 10.9321 12.3121 11.0891C12.3905 11.153 12.4536 11.2336 12.497 11.325C12.5405 11.4164 12.563 11.5164 12.563 11.6176C12.563 11.7187 12.5405 11.8187 12.497 11.9101C12.4536 12.0015 12.3905 12.0821 12.3121 12.1461C11.3894 13.0707 10.4657 13.9951 9.54105 14.9191C9.47732 15 9.39605 15.0654 9.30338 15.1104C9.21071 15.1553 9.10903 15.1787 9.00602 15.1787C8.90301 15.1787 8.80139 15.1553 8.70872 15.1104C8.61605 15.0654 8.53478 15 8.47105 14.9191C7.96305 14.4121 7.45905 13.899 6.94505 13.397C6.3593 12.8005 5.56476 12.4549 4.72904 12.433C3.98904 12.411 3.24706 12.423 2.50706 12.42C2.4036 12.4334 2.29845 12.423 2.19962 12.3896C2.1008 12.3562 2.01089 12.3007 1.93675 12.2273C1.8626 12.1539 1.80614 12.0646 1.77171 11.9661C1.73727 11.8677 1.72575 11.7626 1.73801 11.6591V7.73907C1.72825 7.63976 1.74039 7.53952 1.77348 7.44537C1.80656 7.35122 1.85985 7.2654 1.9296 7.19403C1.99935 7.12266 2.08386 7.06747 2.17722 7.03223C2.27059 6.99699 2.3705 6.98257 2.47001 6.99005C2.73001 6.98505 2.99004 6.99005 3.25004 6.99005C4.07959 7.0103 4.88465 6.70811 5.49601 6.14703C5.76201 5.89841 6.09389 5.7315 6.45207 5.66608C6.59107 5.64108 6.73406 5.64208 6.87406 5.62408C7.03843 5.60375 7.18962 5.52378 7.29893 5.39935C7.40824 5.27493 7.46803 5.11466 7.46702 4.94904C7.46639 4.78035 7.40189 4.6182 7.28648 4.49518C7.17107 4.37216 7.01331 4.29745 6.84501 4.28607C6.66991 4.27776 6.49444 4.28647 6.32102 4.31207C5.6839 4.39891 5.08844 4.67798 4.61405 5.11206C4.42741 5.28582 4.20822 5.42092 3.96916 5.50964C3.73009 5.59837 3.47586 5.639 3.22105 5.62909C2.95005 5.62309 2.67802 5.62209 2.40702 5.62909C2.13486 5.62974 1.86565 5.68505 1.61527 5.79175C1.3649 5.89845 1.13847 6.05432 0.949502 6.25018C0.760537 6.44605 0.612892 6.67791 0.515237 6.93195C0.417582 7.18598 0.371912 7.45706 0.38102 7.72906C0.38102 9.04107 0.38102 10.3534 0.38102 11.6661C0.372025 11.9438 0.419979 12.2204 0.521951 12.4788C0.623922 12.7373 0.777793 12.9721 0.973977 13.1688C1.17016 13.3656 1.40454 13.5201 1.6627 13.6228C1.92086 13.7255 2.19729 13.7743 2.47501 13.7661C3.13701 13.7661 3.79904 13.7661 4.46104 13.7661C4.7641 13.7571 5.06558 13.8126 5.34556 13.929C5.62553 14.0454 5.87763 14.2199 6.08506 14.441C6.55006 14.921 7.02704 15.3871 7.50004 15.8591C7.69105 16.0673 7.92321 16.2335 8.18186 16.3472C8.44051 16.4609 8.72 16.5197 9.00254 16.5197C9.28509 16.5197 9.56457 16.4609 9.82322 16.3472C10.0819 16.2335 10.314 16.0673 10.505 15.8591C11.167 15.2004 11.8267 14.5397 12.484 13.8771C12.5197 13.8383 12.5634 13.8078 12.6122 13.788C12.6609 13.7681 12.7135 13.7593 12.766 13.7621C13.744 13.7621 14.723 13.7691 15.701 13.7621C16.0656 13.7734 16.4262 13.6824 16.7417 13.4993C17.0572 13.3162 17.3151 13.0483 17.4861 12.7261C17.5974 12.4869 17.6881 12.2387 17.7571 11.9841V7.42004C17.7407 7.38934 17.7263 7.35764 17.714 7.32507Z" fill="white"/>
</svg>
