<svg width="59" height="27" viewBox="0 0 59 27" fill="none" xmlns="http://www.w3.org/2000/svg">
<path d="M34.6118 21.4409C30.7571 21.4342 26.9025 21.4342 23.0478 21.4409C22.4895 21.4516 21.9351 21.3472 21.4189 21.1342C20.9028 20.9212 20.436 20.6042 20.0478 20.2029C17.7558 17.9036 15.4615 15.6076 13.1648 13.3149C13.0305 13.1991 12.9206 13.0576 12.8417 12.8988C12.7628 12.7399 12.7165 12.567 12.7054 12.39C12.6944 12.213 12.7188 12.0355 12.7772 11.8681C12.8357 11.7006 12.927 11.5465 13.0458 11.4149C13.1698 11.2813 13.3209 11.1758 13.489 11.1054C13.6571 11.0351 13.8383 11.0015 14.0205 11.007C14.2027 11.0125 14.3815 11.0569 14.5451 11.1373C14.7087 11.2177 14.8531 11.3321 14.9688 11.4729C15.4758 11.9729 15.9738 12.4729 16.4768 12.9779C18.1668 14.6679 19.8582 16.3576 21.5508 18.0469C21.8756 18.4049 22.2987 18.659 22.7673 18.7775C23.2358 18.896 23.729 18.8735 24.1848 18.7129C24.6639 18.5762 25.0913 18.2994 25.412 17.9181C25.7327 17.5368 25.9322 17.0684 25.9848 16.5729C26.0446 16.1404 25.9968 15.6999 25.8455 15.2903C25.6943 14.8808 25.4443 14.5148 25.1178 14.2249C22.1178 11.2249 19.1178 8.21889 16.1178 5.20689C15.4851 4.54612 14.7221 4.02396 13.8771 3.67332C13.0321 3.32269 12.1235 3.15124 11.2088 3.1699C8.2518 3.1809 5.29584 3.19189 2.33984 3.15989C1.98823 3.11236 1.63068 3.18151 1.32214 3.35673C1.01361 3.53195 0.771133 3.8036 0.631836 4.12993V15.2639C0.760455 15.5975 1.00108 15.876 1.3125 16.0517C1.62392 16.2274 1.98674 16.2894 2.33881 16.2269C2.68532 16.2009 3.03331 16.2009 3.37982 16.2269C4.13612 16.2423 4.86425 16.5166 5.44281 17.0039C8.75881 19.8499 12.0978 22.6689 15.4218 25.5039C16.1827 26.1096 17.0886 26.506 18.0498 26.6539C18.1608 26.6759 18.2688 26.7129 18.3778 26.7429H35.0778C35.2918 26.6589 35.5108 26.5869 35.7168 26.4889C36.2617 26.2251 36.7025 25.7861 36.9686 25.2423C37.2347 24.6985 37.3109 24.0811 37.1848 23.4889C37.0613 22.9015 36.7368 22.3755 36.2671 22.0016C35.7974 21.6278 35.212 21.4295 34.6118 21.4409ZM58.3418 12.3669C58.3472 12.1921 58.3168 12.0179 58.2523 11.8553C58.1878 11.6927 58.0906 11.5451 57.9669 11.4215C57.8431 11.2979 57.6952 11.2009 57.5325 11.1367C57.3698 11.0725 57.1957 11.0422 57.0208 11.0479C56.5708 11.0379 56.1208 11.0569 55.6728 11.0409C54.8854 11.0394 54.1238 10.7603 53.5218 10.2529C50.3218 7.52991 47.0868 4.84393 43.8908 2.11393C42.6829 1.05123 41.1203 0.480252 39.5118 0.513897C37.0768 0.527897 34.6408 0.513897 32.2058 0.513897C29.5968 0.513897 26.9868 0.507897 24.3778 0.513897C23.6966 0.520557 23.0435 0.786499 22.5514 1.25761C22.0593 1.72872 21.7652 2.36962 21.7288 3.04991C21.7059 3.4093 21.7579 3.76957 21.8815 4.10783C22.0051 4.44609 22.1975 4.75498 22.4468 5.01493C22.696 5.27489 22.9965 5.48019 23.3293 5.6179C23.662 5.75562 24.0198 5.82272 24.3798 5.81492C28.1638 5.82292 31.9478 5.83394 35.7308 5.80894C36.3538 5.78959 36.9738 5.90224 37.5502 6.13957C38.1265 6.37689 38.6461 6.73347 39.0748 7.18589C41.2748 9.41689 43.4978 11.6199 45.7118 13.8339C45.8066 13.9235 45.8967 14.018 45.9818 14.1169C46.1268 14.2904 46.2241 14.4987 46.264 14.7213C46.3039 14.9439 46.285 15.173 46.2093 15.3861C46.1336 15.5992 46.0036 15.7887 45.8322 15.9362C45.6607 16.0837 45.4538 16.1839 45.2318 16.2269C44.9946 16.2652 44.7514 16.2399 44.5271 16.1537C44.3028 16.0674 44.1053 15.9233 43.9548 15.7359C41.7962 13.5693 39.6335 11.4063 37.4668 9.24693C37.2305 8.98941 36.9443 8.78267 36.6256 8.63932C36.3069 8.49598 35.9623 8.41902 35.6129 8.41313C35.2634 8.40723 34.9165 8.47251 34.5931 8.60502C34.2697 8.73754 33.9766 8.93454 33.7318 9.18394C33.4827 9.42916 33.2857 9.72204 33.1524 10.0451C33.0191 10.3683 32.9523 10.7149 32.9561 11.0644C32.9598 11.4139 33.034 11.7591 33.1741 12.0793C33.3143 12.3994 33.5175 12.6881 33.7718 12.9279C36.8771 16.0559 39.9912 19.1743 43.1138 22.2829C43.6703 22.8489 44.3338 23.2986 45.0656 23.6059C45.7975 23.9132 46.5831 24.0719 47.3768 24.0729C50.5768 24.1069 53.7838 24.0879 56.9878 24.0829C57.1665 24.0937 57.3454 24.0669 57.5131 24.0041C57.6807 23.9414 57.8333 23.8441 57.9609 23.7187C58.0886 23.5932 58.1884 23.4423 58.254 23.2757C58.3196 23.1092 58.3495 22.9308 58.3418 22.7519C58.3498 19.2939 58.3498 15.8323 58.3418 12.3669ZM32.6418 18.8259C32.9038 18.8334 33.1646 18.7883 33.4088 18.693C33.653 18.5978 33.8756 18.4544 34.0633 18.2715C34.251 18.0885 34.4 17.8698 34.5015 17.6281C34.603 17.3864 34.6549 17.1268 34.6541 16.8647C34.6532 16.6026 34.5998 16.3434 34.4968 16.1023C34.3939 15.8613 34.2435 15.6434 34.0547 15.4617C33.8659 15.2799 33.6424 15.1379 33.3976 15.0441C33.1529 14.9504 32.8918 14.9068 32.6298 14.9159C31.3558 14.9079 30.0818 14.9159 28.8088 14.9159C28.6988 14.9159 28.5888 14.9329 28.4488 14.9439C28.7863 16.2559 28.6047 17.6475 27.9418 18.8289C29.5478 18.8289 31.0928 18.8359 32.6378 18.8259H32.6418ZM30.0888 8.39293C29.4508 8.38093 28.8128 8.39293 28.1758 8.39293H23.0948L23.0278 8.50993C24.2752 9.73993 25.5238 10.9679 26.7738 12.1939C26.8751 12.2697 26.9994 12.3082 27.1258 12.3029C28.1118 12.3109 29.0968 12.3179 30.0828 12.3029C30.3394 12.3033 30.5936 12.2531 30.8308 12.1553C31.068 12.0575 31.2837 11.9139 31.4654 11.7327C31.6471 11.5515 31.7914 11.3364 31.89 11.0995C31.9885 10.8625 32.0394 10.6085 32.0398 10.3519C32.0402 10.0953 31.99 9.84114 31.8922 9.60392C31.7944 9.3667 31.6508 9.15107 31.4696 8.96934C31.2884 8.78762 31.0733 8.64334 30.8364 8.54478C30.5994 8.44622 30.3454 8.39533 30.0888 8.39494V8.39293Z" fill="#E27820"/>
</svg>
