<svg width="36" height="47" viewBox="0 0 36 47" fill="none" xmlns="http://www.w3.org/2000/svg">
<path d="M20.6003 43.6219C19.7403 43.6159 18.8803 43.6219 18.0203 43.6219C17.1453 43.6219 16.2703 43.6219 15.3953 43.6219C15.2123 43.612 15.029 43.6394 14.8569 43.7026C14.6848 43.7658 14.5274 43.8634 14.3943 43.9894C14.2612 44.1155 14.1552 44.2674 14.0827 44.4358C14.0102 44.6042 13.9729 44.7856 13.9729 44.9689C13.9729 45.1523 14.0102 45.3337 14.0827 45.5021C14.1552 45.6705 14.2612 45.8224 14.3943 45.9484C14.5274 46.0745 14.6848 46.1721 14.8569 46.2353C15.029 46.2985 15.2123 46.3259 15.3953 46.3159C17.1287 46.3213 18.864 46.3213 20.6013 46.3159C20.7844 46.3259 20.9675 46.2985 21.1396 46.2353C21.3118 46.1721 21.4692 46.0745 21.6023 45.9484C21.7354 45.8224 21.8414 45.6705 21.9139 45.5021C21.9863 45.3337 22.0237 45.1523 22.0237 44.9689C22.0237 44.7856 21.9863 44.6042 21.9139 44.4358C21.8414 44.2674 21.7354 44.1155 21.6023 43.9894C21.4692 43.8634 21.3118 43.7658 21.1396 43.7026C20.9675 43.6394 20.7844 43.612 20.6013 43.6219H20.6003ZM34.9393 14.142C34.1766 10.9186 32.5152 7.97767 30.1481 5.66064C27.781 3.34362 24.8052 1.74553 21.5663 1.05194C20.8883 0.906941 20.1973 0.815951 19.5123 0.699951H16.4843C16.0323 0.768951 15.5763 0.82295 15.1283 0.91095C12.3011 1.37514 9.63403 2.53589 7.36761 4.28851C5.1012 6.04114 3.30678 8.33048 2.1463 10.95C0.640249 14.1617 0.204202 17.7719 0.902281 21.2499C1.48927 24.5148 3.02203 27.5354 5.3103 29.937C6.87149 31.6154 8.75277 32.9646 10.8433 33.905C10.9963 33.9565 11.1266 34.0593 11.2125 34.196C11.2983 34.3327 11.3343 34.4948 11.3143 34.655C11.2963 36.255 11.3043 37.8609 11.3073 39.4639C11.2787 39.6683 11.2979 39.8765 11.3635 40.0722C11.429 40.2679 11.539 40.4457 11.6849 40.5916C11.8307 40.7376 12.0085 40.8477 12.2041 40.9134C12.3997 40.979 12.6079 40.9983 12.8123 40.9699C16.2703 40.9699 19.7286 40.9699 23.1873 40.9699C23.3916 40.9976 23.5995 40.9776 23.7947 40.9114C23.99 40.8453 24.1672 40.7347 24.3126 40.5885C24.4579 40.4423 24.5674 40.2644 24.6324 40.0687C24.6974 39.8731 24.7162 39.6651 24.6873 39.4609C24.6873 37.8609 24.6983 36.2549 24.6793 34.6519C24.6614 34.4917 24.6986 34.3301 24.7847 34.1938C24.8709 34.0575 25.0009 33.9545 25.1533 33.9019C25.7366 33.6446 26.3043 33.3531 26.8533 33.0289C29.996 31.1742 32.4728 28.3744 33.9303 25.0289C35.4554 21.6099 35.8118 17.7838 34.9443 14.142H34.9393ZM29.4503 27.1899C27.8216 29.2733 25.6424 30.8594 23.1593 31.7689C22.9747 31.8009 22.7981 31.8691 22.6399 31.9695C22.4816 32.0699 22.3447 32.2004 22.2371 32.3538C22.1294 32.5072 22.0531 32.6803 22.0124 32.8633C21.9718 33.0462 21.9677 33.2354 22.0003 33.4199C22.0003 34.8599 21.9893 36.2999 22.0063 37.7399C22.0113 38.1399 21.8893 38.2919 21.4733 38.2849C20.3153 38.2629 19.1573 38.2769 17.9993 38.2769H14.8373C14.0053 38.2769 14.0053 38.2769 14.0053 37.4229C14.0053 36.0896 14.0053 34.7533 14.0053 33.4139C14.0053 32.4419 13.8053 32.1339 12.8783 31.7849C10.8718 31.0359 9.05389 29.856 7.55273 28.3284C6.05158 26.8007 4.90369 24.9625 4.18988 22.9432C3.47607 20.9239 3.21371 18.7726 3.42132 16.6409C3.62894 14.5093 4.30149 12.449 5.39154 10.6054C6.48159 8.76178 7.96262 7.1796 9.73034 5.97034C11.4981 4.76107 13.5095 3.95414 15.6228 3.60638C17.7361 3.25863 19.9 3.37851 21.962 3.95758C24.024 4.53665 25.934 5.56081 27.5573 6.95795C30.3177 9.2598 32.0933 12.5302 32.5203 16.0989C32.8037 18.0591 32.6776 20.0567 32.15 21.9656C31.6225 23.8746 30.7049 25.6534 29.4553 27.1899H29.4503Z" fill="#E27820"/>
</svg>
