<svg width="52" height="52" viewBox="0 0 52 52" fill="none" xmlns="http://www.w3.org/2000/svg">
<path d="M26.074 4.29614C30.3746 4.29614 34.5786 5.57143 38.1543 7.96069C41.7301 10.35 44.5171 13.7459 46.1629 17.7191C47.8086 21.6923 48.2392 26.0643 47.4002 30.2822C46.5612 34.5001 44.4903 38.3745 41.4494 41.4155C38.4084 44.4564 34.534 46.5273 30.3161 47.3663C26.0981 48.2053 21.7261 47.7748 17.7529 46.129C13.7798 44.4833 10.3838 41.6963 7.99456 38.1205C5.6053 34.5447 4.33001 30.3407 4.33001 26.0402C4.33001 23.1847 4.89245 20.3572 5.98519 17.7191C7.07793 15.081 8.67957 12.684 10.6987 10.6649C12.7178 8.64574 15.1148 7.04409 17.7529 5.95135C20.3911 4.85862 23.2186 4.29614 26.074 4.29614ZM26.074 0.296143C20.9823 0.296143 16.005 1.80604 11.7714 4.63483C7.53783 7.46361 4.23816 11.4843 2.28966 16.1884C0.34116 20.8925 -0.168641 26.0687 0.824696 31.0626C1.81803 36.0564 4.2699 40.6435 7.87026 44.2439C11.4706 47.8443 16.0578 50.2962 21.0516 51.2895C26.0455 52.2828 31.2217 51.773 35.9258 49.8245C40.6299 47.876 44.6506 44.5764 47.4794 40.3428C50.3081 36.1092 51.818 31.1318 51.818 26.0402C51.8101 19.2149 49.0952 12.6714 44.269 7.84515C39.4428 3.01894 32.8993 0.304082 26.074 0.296143Z" fill="url(#paint0_linear_595_5)"/>
<path d="M20.7 15.6431C21.0332 15.6439 21.3603 15.733 21.648 15.9011L29.002 20.147L36.356 24.3931C36.6455 24.5596 36.8861 24.7995 37.0533 25.0887C37.2206 25.3778 37.3087 25.706 37.3087 26.04C37.3087 26.3741 37.2206 26.7022 37.0533 26.9914C36.8861 27.2806 36.6455 27.5205 36.356 27.687L29.002 31.933L21.648 36.179C21.359 36.3466 21.0308 36.435 20.6967 36.4353C20.3627 36.4356 20.0344 36.3479 19.7451 36.1808C19.4557 36.0138 19.2155 35.7734 19.0487 35.4839C18.8819 35.1945 18.7944 34.8661 18.795 34.532V17.548C18.795 17.0441 18.9952 16.5608 19.3515 16.2045C19.7078 15.8482 20.1911 15.648 20.695 15.648M20.695 14.648C19.9265 14.6501 19.1901 14.9564 18.6467 15.4998C18.1033 16.0432 17.7971 16.7796 17.795 17.548V34.532C17.7944 35.0417 17.9281 35.5425 18.1827 35.9839C18.4373 36.4254 18.8037 36.792 19.2451 37.0468C19.6864 37.3016 20.1871 37.4356 20.6967 37.4353C21.2064 37.435 21.7069 37.3004 22.148 37.045L29.502 32.799L36.856 28.553C37.2975 28.2987 37.6643 27.9325 37.9193 27.4913C38.1743 27.0502 38.3086 26.5496 38.3086 26.04C38.3086 25.5305 38.1743 25.0299 37.9193 24.5887C37.6643 24.1476 37.2975 23.7814 36.856 23.527L29.502 19.2811L22.148 15.035C21.7079 14.7799 21.2086 14.6448 20.7 14.6431L20.695 14.648Z" fill="#CF640B"/>
<defs>
<linearGradient id="paint0_linear_595_5" x1="0.330017" y1="26.0402" x2="51.818" y2="26.0402" gradientUnits="userSpaceOnUse">
<stop stop-color="#ED7725"/>
<stop offset="0.134" stop-color="#9C4F10"/>
<stop offset="0.271" stop-color="#6F3E14"/>
<stop offset="0.404" stop-color="#4C3018"/>
<stop offset="0.528" stop-color="#33261A"/>
<stop offset="0.641" stop-color="#24201C"/>
<stop offset="0.732" stop-color="#1F1E1D" stop-opacity="0"/>
</linearGradient>
</defs>
</svg>
