<svg width="26" height="36" viewBox="0 0 26 36" fill="none" xmlns="http://www.w3.org/2000/svg">
<path d="M12.971 11.092C12.2767 11.0918 11.5981 10.8858 11.0209 10.4999C10.4437 10.1141 9.99381 9.56582 9.72817 8.92437C9.46252 8.28292 9.39302 7.57711 9.52845 6.89616C9.66387 6.21521 9.99814 5.5897 10.489 5.0987C10.9799 4.6077 11.6053 4.27325 12.2862 4.13763C12.9671 4.00202 13.6729 4.07132 14.3144 4.33678C14.956 4.60224 15.5044 5.05194 15.8904 5.62904C16.2764 6.20614 16.4826 6.88472 16.483 7.579C16.483 8.05639 16.6726 8.51423 17.0102 8.85179C17.3478 9.18936 17.8056 9.379 18.283 9.379C18.7604 9.379 19.2182 9.18936 19.5558 8.85179C19.8934 8.51423 20.083 8.05639 20.083 7.579C20.0834 6.17308 19.6669 4.79863 18.8861 3.62946C18.1053 2.46029 16.9953 1.54893 15.6965 1.01064C14.3977 0.472341 12.9685 0.331294 11.5895 0.605332C10.2106 0.87937 8.94387 1.55618 7.94959 2.55018C6.95532 3.54417 6.27815 4.81069 6.00373 6.18956C5.7293 7.56843 5.86995 8.99772 6.40788 10.2966C6.94581 11.5956 7.85686 12.7058 9.02581 13.4869C10.1948 14.2681 11.5691 14.685 12.975 14.685C15.001 14.6843 16.9655 15.381 18.5383 16.6581C20.1112 17.9352 21.1965 19.7148 21.6118 21.6977C22.0271 23.6807 21.7472 25.7462 20.819 27.5471C19.8908 29.348 18.371 30.7745 16.515 31.5869C14.659 32.3992 12.5799 32.5479 10.6271 32.0079C8.67441 31.468 6.96707 30.2723 5.79208 28.6218C4.61709 26.9713 4.04606 24.9666 4.17498 22.9447C4.3039 20.9228 5.1249 19.0069 6.5 17.519C6.67287 17.3479 6.80929 17.1436 6.90102 16.9184C6.99274 16.6932 7.03787 16.4517 7.03369 16.2085C7.0295 15.9653 6.97608 15.7255 6.87665 15.5036C6.77722 15.2817 6.63385 15.0822 6.45519 14.9172C6.27653 14.7522 6.06628 14.6251 5.83715 14.5436C5.60801 14.4621 5.36473 14.4279 5.122 14.443C4.87928 14.4581 4.64213 14.5223 4.42488 14.6316C4.20764 14.7409 4.0148 14.8931 3.858 15.079C1.92125 17.1723 0.764158 19.8686 0.581217 22.7145C0.398277 25.5605 1.20064 28.3827 2.85344 30.7068C4.50625 33.0308 6.90873 34.7151 9.65708 35.4764C12.4054 36.2377 15.3321 36.0297 17.9451 34.8874C20.5582 33.745 22.6983 31.7379 24.0058 29.2034C25.3133 26.669 25.7085 23.7617 25.1249 20.9702C24.5413 18.1787 23.0145 15.6732 20.8012 13.8748C18.5878 12.0765 15.8228 11.0949 12.971 11.095V11.092ZM17.765 23.511C17.765 22.563 17.4839 21.6364 16.9572 20.8481C16.4306 20.0599 15.682 19.4456 14.8062 19.0828C13.9304 18.7201 12.9667 18.6252 12.0369 18.8101C11.1072 18.995 10.2532 19.4515 9.58284 20.1218C8.91253 20.7922 8.45604 21.6462 8.2711 22.5759C8.08616 23.5057 8.18108 24.4694 8.54385 25.3452C8.90662 26.221 9.52095 26.9696 10.3092 27.4962C11.0974 28.0229 12.024 28.304 12.972 28.304C13.6015 28.3041 14.2248 28.1802 14.8064 27.9394C15.3879 27.6986 15.9164 27.3456 16.3615 26.9005C16.8066 26.4554 17.1596 25.9269 17.4004 25.3454C17.6412 24.7638 17.7651 24.1405 17.765 23.511Z" fill="url(#paint0_linear_1_443)"/>
<defs>
<linearGradient id="paint0_linear_1_443" x1="1.30059" y1="35.076" x2="33.4742" y2="14.5349" gradientUnits="userSpaceOnUse">
<stop stop-color="#E7491D"/>
<stop offset="0.726" stop-color="#F7A92C"/>
</linearGradient>
</defs>
</svg>
