<svg width="52" height="52" viewBox="0 0 52 52" fill="none" xmlns="http://www.w3.org/2000/svg">
<path d="M26.074 4.37915C30.3746 4.37915 34.5786 5.65444 38.1543 8.0437C41.7301 10.433 44.5171 13.8289 46.1629 17.8021C47.8086 21.7753 48.2392 26.1473 47.4002 30.3652C46.5612 34.5832 44.4903 38.4575 41.4494 41.4985C38.4084 44.5394 34.534 46.6103 30.3161 47.4493C26.0981 48.2883 21.7261 47.8577 17.7529 46.212C13.7798 44.5662 10.3838 41.7793 7.99456 38.2035C5.6053 34.6277 4.33001 30.4237 4.33001 26.1232C4.33001 20.3563 6.6209 14.8256 10.6987 10.7478C14.7765 6.67001 20.3072 4.37915 26.074 4.37915ZM26.074 0.37915C20.9823 0.37915 16.005 1.88905 11.7714 4.71783C7.53783 7.54662 4.23816 11.5673 2.28966 16.2714C0.34116 20.9755 -0.168641 26.1517 0.824696 31.1456C1.81803 36.1394 4.2699 40.7265 7.87026 44.3269C11.4706 47.9273 16.0578 50.3792 21.0516 51.3725C26.0455 52.3658 31.2217 51.856 35.9258 49.9075C40.6299 47.959 44.6506 44.6594 47.4794 40.4258C50.3081 36.1922 51.818 31.2149 51.818 26.1232C51.8101 19.2979 49.0952 12.7544 44.269 7.92816C39.4428 3.10194 32.8993 0.38709 26.074 0.37915Z" fill="url(#paint0_linear_595_4)"/>
<path d="M36.856 29.053C36.218 28.453 35.5767 27.8531 34.932 27.2531C34.8815 27.2121 34.8416 27.1595 34.816 27.0997C34.7904 27.04 34.7798 26.9748 34.785 26.91C34.798 26.386 34.799 25.861 34.785 25.337C34.78 25.2686 34.7916 25.2 34.8187 25.137C34.8459 25.0739 34.8878 25.0184 34.941 24.975C35.604 24.363 36.264 23.749 36.916 23.126C37.1701 22.8988 37.3365 22.5895 37.386 22.2521C37.4356 21.9148 37.3651 21.5708 37.187 21.28C37.118 21.1394 37.0388 21.0041 36.95 20.8751C36.7943 20.6484 36.7319 20.3705 36.776 20.0991C36.895 18.5361 37.003 16.9731 37.112 15.4091C37.138 15.0291 36.882 14.856 36.537 15.023C34.945 15.795 33.3543 16.5694 31.765 17.3461C31.409 17.5201 31.393 17.821 31.723 18.046C32.011 18.246 32.302 18.446 32.623 18.661C32.203 18.789 31.823 18.914 31.443 19.012C31.3275 19.0324 31.2086 19.0127 31.106 18.9561C30.654 18.7081 30.215 18.434 29.762 18.188C29.6993 18.1608 29.6443 18.1187 29.6016 18.0654C29.5589 18.012 29.5299 17.9491 29.517 17.882C29.317 17.004 29.1137 16.127 28.907 15.251C28.8541 14.9798 28.7249 14.7292 28.5347 14.5287C28.3445 14.3283 28.1011 14.1861 27.833 14.119C27.7984 14.1061 27.765 14.0904 27.733 14.072H24.44C24.1022 14.1508 23.7976 14.3334 23.5689 14.5942C23.3402 14.855 23.199 15.1809 23.165 15.5261C23.008 16.3321 22.802 17.126 22.606 17.926C22.5733 18.024 22.5066 18.107 22.418 18.16C21.963 18.435 21.495 18.688 21.042 18.967C20.989 19.004 20.9278 19.0276 20.8638 19.0358C20.7997 19.044 20.7346 19.0365 20.674 19.014C19.829 18.752 18.982 18.498 18.135 18.243C17.7937 18.1126 17.4159 18.1145 17.0758 18.2482C16.7358 18.382 16.458 18.638 16.297 18.9661C15.8676 19.7041 15.4406 20.443 15.016 21.183C14.7955 21.4951 14.7042 21.8803 14.7612 22.2581C14.8182 22.6359 15.0192 22.977 15.322 23.21C15.963 23.81 16.606 24.4101 17.241 25.0101C17.3118 25.0851 17.3533 25.183 17.358 25.286C17.3311 25.6293 17.325 25.974 17.34 26.3181C17.4019 26.5659 17.3837 26.827 17.2879 27.0638C17.1922 27.3006 17.0238 27.5009 16.807 27.636C16.7619 27.6622 16.7236 27.6985 16.6951 27.7421C16.6665 27.7856 16.6485 27.8353 16.6425 27.887C16.6365 27.9388 16.6426 27.9912 16.6604 28.0402C16.6782 28.0891 16.7071 28.1333 16.745 28.1691C16.7804 28.2058 16.8231 28.2347 16.8703 28.254C16.9175 28.2733 16.9683 28.2825 17.0193 28.2811C17.0703 28.2797 17.1205 28.2677 17.1666 28.2458C17.2126 28.2239 17.2536 28.1927 17.287 28.1541C17.487 27.9701 17.687 27.773 17.887 27.595C17.9613 27.5327 18.0192 27.453 18.0555 27.363C18.0918 27.273 18.1053 27.1755 18.095 27.079C18.078 26.43 18.08 25.779 18.095 25.132C18.1038 25.0388 18.0902 24.9448 18.0555 24.8578C18.0207 24.7709 17.9657 24.6935 17.895 24.632C17.187 23.978 16.484 23.3171 15.782 22.6561C15.6961 22.5956 15.6235 22.5183 15.5686 22.4288C15.5137 22.3393 15.4776 22.2395 15.4626 22.1356C15.4477 22.0316 15.4541 21.9257 15.4815 21.8243C15.5089 21.723 15.5567 21.6282 15.622 21.546C16.0347 20.826 16.4493 20.107 16.866 19.389C16.9044 19.2804 16.9655 19.1813 17.0454 19.0983C17.1252 19.0152 17.2219 18.9502 17.3289 18.9076C17.4359 18.865 17.5508 18.8458 17.6658 18.8512C17.7809 18.8566 17.8935 18.8865 17.996 18.939C18.902 19.215 19.809 19.4851 20.713 19.7661C20.8048 19.7965 20.9025 19.8043 20.9979 19.7888C21.0933 19.7733 21.1836 19.7349 21.261 19.6771C21.791 19.3461 22.331 19.029 22.882 18.736C22.9779 18.6958 23.0627 18.633 23.129 18.5529C23.1954 18.4727 23.2413 18.3778 23.263 18.2761C23.471 17.3441 23.693 16.415 23.911 15.485C23.9204 15.3786 23.9514 15.2751 24.0021 15.181C24.0528 15.0869 24.1221 15.0041 24.2058 14.9376C24.2896 14.8712 24.386 14.8225 24.4892 14.7946C24.5924 14.7666 24.7002 14.7599 24.806 14.775H27.275C27.3902 14.7546 27.5085 14.7589 27.622 14.7877C27.7354 14.8165 27.8414 14.8692 27.933 14.9421C28.0246 15.015 28.0996 15.1066 28.153 15.2107C28.2064 15.3148 28.2371 15.4291 28.243 15.546C28.458 16.476 28.679 17.4051 28.891 18.3361C28.9081 18.4156 28.9434 18.49 28.994 18.5537C29.0447 18.6174 29.1093 18.6685 29.183 18.7031C29.763 19.0271 30.339 19.3571 30.907 19.7031C30.9762 19.7533 31.0564 19.7863 31.1409 19.7993C31.2254 19.8124 31.3119 19.805 31.393 19.778C31.569 19.718 31.75 19.6711 31.977 19.6041L30.885 21.2191C30.818 21.1611 30.771 21.119 30.725 21.08C29.9291 20.327 28.9611 19.7801 27.9053 19.4873C26.8495 19.1945 25.738 19.1645 24.668 19.4C23.3258 19.68 22.0983 20.356 21.1442 21.3407C20.1901 22.3254 19.5531 23.5735 19.3156 24.9239C19.078 26.2743 19.2509 27.6649 19.8117 28.916C20.3726 30.1672 21.2957 31.2215 22.4618 31.9426C23.628 32.6638 24.9835 33.0188 26.3535 32.9617C27.7234 32.9046 29.0447 32.438 30.1468 31.6223C31.2489 30.8065 32.081 29.6791 32.5358 28.3856C32.9906 27.0921 33.0471 25.692 32.698 24.366C32.6765 24.3007 32.6711 24.2312 32.6821 24.1634C32.693 24.0955 32.7201 24.0313 32.761 23.976C33.529 22.849 34.29 21.7181 35.054 20.5891C35.096 20.5271 35.144 20.4681 35.196 20.3961C35.432 20.5551 35.645 20.715 35.875 20.847C36.1512 21.0095 36.3737 21.2494 36.515 21.537C36.5794 21.6245 36.6257 21.7239 36.6511 21.8295C36.6765 21.9351 36.6805 22.0447 36.6629 22.1519C36.6452 22.259 36.6064 22.3616 36.5485 22.4535C36.4907 22.5454 36.415 22.6248 36.326 22.687C35.634 23.335 34.945 23.9871 34.247 24.6301C34.1707 24.7006 34.1126 24.7885 34.0777 24.8864C34.0429 24.9843 34.0324 25.0891 34.047 25.192C34.071 25.801 34.071 26.4121 34.047 27.0211C34.0324 27.1241 34.0429 27.2291 34.0777 27.3271C34.1126 27.4252 34.1707 27.5133 34.247 27.584C34.952 28.231 35.647 28.884 36.347 29.543C36.4345 29.6043 36.5088 29.6826 36.5652 29.7733C36.6217 29.864 36.6592 29.9653 36.6754 30.0709C36.6917 30.1765 36.6864 30.2843 36.6598 30.3878C36.6333 30.4913 36.5861 30.5883 36.521 30.673C36.1043 31.3997 35.6853 32.1254 35.264 32.85C35.2241 32.9538 35.1631 33.0481 35.0848 33.127C35.0064 33.2059 34.9125 33.2676 34.809 33.3081C34.7055 33.3487 34.5947 33.3672 34.4837 33.3625C34.3726 33.3579 34.2637 33.3301 34.164 33.2811C33.25 33.0041 32.335 32.7321 31.424 32.4481C31.332 32.4181 31.2341 32.4107 31.1387 32.4268C31.0433 32.4428 30.9531 32.4817 30.876 32.54C30.367 32.86 29.853 33.177 29.317 33.449C29.1968 33.5 29.0914 33.5803 29.0105 33.6827C28.9295 33.7852 28.8757 33.9063 28.854 34.035C28.654 34.953 28.436 35.866 28.217 36.78C28.19 36.9775 28.0873 37.1569 27.9305 37.28C27.7738 37.4032 27.5753 37.4606 27.377 37.4401C26.5103 37.4401 25.6403 37.4401 24.767 37.4401C24.5645 37.4595 24.3625 37.3987 24.2043 37.2708C24.0461 37.1429 23.9444 36.9581 23.921 36.756C23.7 35.811 23.477 34.866 23.263 33.92C23.243 33.8254 23.2008 33.737 23.1397 33.662C23.0787 33.587 23.0006 33.5277 22.912 33.489C22.362 33.194 21.818 32.8831 21.288 32.5521C21.2052 32.4891 21.1084 32.447 21.0058 32.4296C20.9032 32.4122 20.7979 32.4199 20.699 32.452C19.757 32.746 18.813 33.0291 17.868 33.3101C17.6967 33.3757 17.5071 33.3748 17.3365 33.3076C17.1659 33.2404 17.0266 33.1118 16.946 32.947C16.486 32.163 16.0317 31.3764 15.583 30.587C15.4818 30.4342 15.4411 30.2491 15.469 30.0679C15.497 29.8867 15.5914 29.7224 15.734 29.6071C15.885 29.4591 16.045 29.3201 16.194 29.1691C16.2298 29.1377 16.2589 29.0994 16.2796 29.0566C16.3004 29.0137 16.3123 28.9671 16.3146 28.9196C16.317 28.872 16.3097 28.8245 16.2934 28.7798C16.277 28.7351 16.2517 28.6941 16.2192 28.6594C16.1867 28.6246 16.1474 28.5968 16.1039 28.5775C16.0604 28.5582 16.0135 28.5478 15.9659 28.5471C15.9183 28.5463 15.871 28.5551 15.8269 28.5729C15.7827 28.5908 15.7427 28.6174 15.709 28.6511C15.562 28.7801 15.421 28.916 15.278 29.051C14.9994 29.2808 14.8154 29.6054 14.7613 29.9625C14.7073 30.3195 14.7869 30.684 14.985 30.986C15.4196 31.748 15.8583 32.5077 16.301 33.265C16.4629 33.5881 16.7384 33.84 17.0747 33.9723C17.411 34.1046 17.7843 34.1081 18.123 33.9821C18.978 33.7261 19.83 33.461 20.687 33.213C20.8015 33.1876 20.9214 33.204 21.025 33.259C21.4916 33.5144 21.952 33.781 22.406 34.059C22.5003 34.1159 22.5712 34.2046 22.606 34.309C22.819 35.175 23.018 36.0451 23.22 36.9091C23.2795 37.2692 23.4699 37.5947 23.7547 37.8232C24.0394 38.0516 24.3985 38.167 24.763 38.147C25.649 38.147 26.535 38.147 27.421 38.147C27.7697 38.16 28.1115 38.0477 28.3846 37.8306C28.6577 37.6134 28.8441 37.3057 28.91 36.963C29.1173 36.087 29.321 35.21 29.521 34.332C29.5321 34.2684 29.5585 34.2085 29.5979 34.1573C29.6372 34.1061 29.6884 34.0651 29.747 34.038C30.208 33.79 30.653 33.5121 31.112 33.2601C31.215 33.2035 31.3347 33.1851 31.45 33.2081C32.307 33.4551 33.159 33.72 34.014 33.976C34.3558 34.1056 34.7336 34.1032 35.0737 33.9691C35.4138 33.8351 35.6916 33.579 35.853 33.251C36.2856 32.5064 36.7163 31.76 37.145 31.012C37.3486 30.7079 37.4319 30.3389 37.3784 29.9768C37.325 29.6147 37.1388 29.2854 36.856 29.053ZM29.32 31.33C28.1416 32.0643 26.7487 32.3765 25.3697 32.2153C23.9907 32.0542 22.7073 31.4293 21.73 30.4431L24.707 26.89C24.778 26.958 24.84 27.0141 24.9 27.0731C25.576 27.7491 26.252 28.425 26.928 29.101C27.0907 29.2946 27.2981 29.4457 27.5323 29.5411C27.7665 29.6366 28.0204 29.6736 28.2721 29.6489C28.5238 29.6241 28.7657 29.5385 28.9768 29.3993C29.188 29.2601 29.3621 29.0716 29.484 28.85C30.3007 27.6434 31.1163 26.4364 31.931 25.2291C31.978 25.1601 32.031 25.093 32.087 25.014C32.3233 26.2233 32.185 27.4759 31.6906 28.6045C31.1962 29.7331 30.3691 30.6839 29.32 31.33ZM36.065 20.1171C35.839 19.9661 35.639 19.834 35.44 19.7C35.08 19.459 34.951 19.4821 34.71 19.8391C32.7766 22.701 30.8433 25.5634 28.91 28.426C28.8485 28.5669 28.7505 28.6888 28.6261 28.779C28.5016 28.8692 28.3553 28.9246 28.2023 28.9393C28.0494 28.954 27.8952 28.9275 27.7559 28.8625C27.6166 28.7976 27.4972 28.6967 27.41 28.5701L25.049 26.209C24.756 25.917 24.58 25.927 24.315 26.244L21.371 29.759C21.336 29.8 21.299 29.8391 21.243 29.9011C20.8871 29.4619 20.6017 28.97 20.397 28.4431C20.3922 28.4106 20.3945 28.3775 20.4039 28.3461C20.4132 28.3146 20.4293 28.2856 20.451 28.261C21.621 26.861 22.7943 25.461 23.971 24.061C24.0471 23.9649 24.1438 23.887 24.254 23.8331C24.3641 23.7792 24.485 23.7506 24.6076 23.7495C24.7303 23.7483 24.8516 23.7746 24.9628 23.8265C25.0739 23.8783 25.172 23.9543 25.25 24.049C26.023 24.816 26.792 25.5891 27.563 26.3591C27.897 26.6931 28.075 26.676 28.341 26.283C28.6923 25.7644 29.043 25.245 29.393 24.725C29.556 24.482 29.54 24.275 29.354 24.148C29.168 24.021 28.967 24.0821 28.802 24.3231C28.502 24.7631 28.202 25.205 27.892 25.668C27.821 25.601 27.759 25.5461 27.7 25.4871L25.788 23.575C25.6346 23.3973 25.4429 23.2566 25.2273 23.1635C25.0117 23.0704 24.7779 23.0274 24.5433 23.0376C24.3087 23.0478 24.0795 23.111 23.8728 23.2224C23.6661 23.3339 23.4874 23.4906 23.35 23.681C22.3293 24.901 21.3073 26.1204 20.284 27.3391C20.235 27.397 20.184 27.452 20.125 27.515C19.8128 26.2107 19.9383 24.8399 20.4821 23.6139C21.026 22.3879 21.958 21.3749 23.1345 20.7309C24.311 20.0869 25.6666 19.8478 26.9924 20.0504C28.3182 20.253 29.5405 20.8861 30.471 21.8521C30.171 22.2881 29.871 22.7261 29.584 23.1691C29.5554 23.2063 29.5345 23.2489 29.5225 23.2944C29.5105 23.3398 29.5077 23.3872 29.5142 23.4337C29.5207 23.4803 29.5364 23.525 29.5604 23.5654C29.5844 23.6058 29.6162 23.6411 29.654 23.6691C29.6938 23.6978 29.7392 23.718 29.7872 23.7286C29.8352 23.7391 29.8849 23.7398 29.9331 23.7304C29.9814 23.721 30.0272 23.7019 30.0677 23.6741C30.1083 23.6464 30.1428 23.6106 30.169 23.569C30.203 23.527 30.232 23.48 30.263 23.434L32.2 20.579C32.586 20.0084 32.9716 19.4371 33.357 18.8651C33.557 18.5651 33.526 18.409 33.224 18.202L32.567 17.754L36.367 15.905L36.065 20.1171Z" fill="#59C378"/>
<defs>
<linearGradient id="paint0_linear_595_4" x1="0.330017" y1="26.1232" x2="51.818" y2="26.1232" gradientUnits="userSpaceOnUse">
<stop stop-color="#30BD59"/>
<stop offset="0.074" stop-color="#396E48"/>
<stop offset="0.262" stop-color="#2E4B35"/>
<stop offset="0.44" stop-color="#253228"/>
<stop offset="0.601" stop-color="#20231F"/>
<stop offset="0.732" stop-color="#1F1E1D" stop-opacity="0"/>
</linearGradient>
</defs>
</svg>
