<svg width="33" height="44" viewBox="0 0 33 44" fill="none" xmlns="http://www.w3.org/2000/svg">
<path d="M31.7378 25.771C31.5257 25.7367 31.3107 25.723 31.0958 25.7299C30.0428 25.7299 28.9958 25.7299 27.9378 25.7299C27.6848 25.7299 27.4308 25.702 27.1958 25.688C27.0568 23.7333 27.0595 21.7712 27.2038 19.817C27.4348 19.677 27.6788 19.526 27.9248 19.38C28.9108 18.7926 29.8972 18.2057 30.8838 17.619C31.009 17.5489 31.1284 17.469 31.2408 17.38C31.423 17.2415 31.5463 17.0395 31.5864 16.8142C31.6264 16.5889 31.5801 16.3567 31.4568 16.1639C31.3979 16.0726 31.3214 15.994 31.2319 15.9323C31.1424 15.8707 31.0416 15.8274 30.9353 15.8048C30.829 15.7822 30.7193 15.7808 30.6125 15.8007C30.5057 15.8207 30.4038 15.8616 30.3128 15.921C29.4968 16.372 28.7038 16.864 27.8988 17.336C27.5938 17.515 27.2828 17.687 26.9148 17.896C26.5933 16.6565 25.9104 15.5408 24.9529 14.6906C23.9954 13.8405 22.8066 13.2944 21.5378 13.1219C21.4378 12.5479 21.3118 11.991 21.2378 11.422C21.1829 10.2732 20.6761 9.19267 19.8278 8.41598C19.8278 7.70798 19.7868 7.06098 19.8348 6.41598C19.8939 5.39102 20.2977 4.4161 20.9806 3.6495C21.6635 2.88291 22.5855 2.36962 23.5968 2.19296C23.8528 2.14396 24.1188 2.14301 24.3798 2.11801C24.5059 2.12255 24.6314 2.10063 24.7485 2.0538C24.8656 2.00697 24.9716 1.93624 25.0597 1.84604C25.1479 1.75584 25.2162 1.64814 25.2603 1.53C25.3044 1.41186 25.3233 1.28589 25.3158 1.16C25.2838 0.660002 24.9288 0.347936 24.3048 0.391936C23.6619 0.416397 23.0241 0.51715 22.4048 0.691985C21.1648 1.0875 20.0802 1.86213 19.3039 2.90683C18.5276 3.95153 18.0988 5.2136 18.0778 6.51498C18.0678 6.86498 18.0418 7.21496 18.0208 7.61496C16.7668 7.58096 15.5868 7.69093 14.3338 7.60593V6.462C14.2981 5.14902 13.8499 3.88057 13.0528 2.83664C12.2556 1.79271 11.1501 1.02625 9.89285 0.645964C9.25119 0.447171 8.57718 0.374202 7.90784 0.430998C7.7253 0.431327 7.54989 0.501888 7.41805 0.628142C7.28621 0.754396 7.20806 0.92662 7.19984 1.10898C7.15916 1.29887 7.19032 1.49711 7.28728 1.66537C7.38425 1.83363 7.54015 1.95997 7.72485 2.01999C7.90827 2.07006 8.09771 2.09462 8.28783 2.09299C9.26294 2.14059 10.1975 2.49785 10.9557 3.11288C11.7138 3.72791 12.2561 4.56859 12.5038 5.51291C12.6833 6.46607 12.7234 7.44032 12.6228 8.405C12.003 8.96582 11.5731 9.70567 11.3928 10.5219C11.3248 10.8739 11.2828 11.231 11.2188 11.583C11.1268 12.094 11.0248 12.604 10.9248 13.123C9.65308 13.2945 8.46128 13.841 7.50159 14.693C6.54191 15.5449 5.85788 16.6635 5.53684 17.906C5.23684 17.741 5.00684 17.6219 4.78384 17.4909C4.02284 17.0399 3.26585 16.582 2.50285 16.133C2.32322 16.0146 2.12978 15.9185 1.92684 15.847C1.80132 15.805 1.66735 15.7948 1.53693 15.8174C1.40652 15.8399 1.28373 15.8945 1.17957 15.9762C1.07542 16.0578 0.993157 16.164 0.940148 16.2852C0.887138 16.4065 0.865047 16.5391 0.875847 16.671C0.883787 16.851 0.941943 17.025 1.04374 17.1737C1.14554 17.3223 1.2869 17.4395 1.45184 17.5119C2.4985 18.1359 3.54418 18.7633 4.58884 19.394C4.83184 19.541 5.06683 19.701 5.30083 19.853V25.729C5.00083 25.753 4.74485 25.79 4.48785 25.791C3.43585 25.798 2.38783 25.791 1.33083 25.796C1.11577 25.7899 0.900594 25.8029 0.687844 25.8349C0.521303 25.8621 0.368316 25.9433 0.25248 26.066C0.136644 26.1887 0.0643837 26.3462 0.046837 26.514C0.0163667 26.681 0.0435147 26.8533 0.123818 27.0028C0.20412 27.1523 0.332818 27.2702 0.488838 27.337C0.732561 27.4296 0.991115 27.4771 1.25184 27.477C2.35184 27.491 3.45184 27.477 4.55184 27.484C4.80784 27.484 5.06485 27.505 5.42085 27.52C5.46784 29.794 5.42085 32.008 5.44485 34.237C5.21585 34.383 5.01783 34.5129 4.81583 34.6369C3.7525 35.2809 2.6885 35.9246 1.62383 36.568C1.45586 36.6583 1.29711 36.7648 1.14983 36.886C1.02463 37.0001 0.937616 37.15 0.900582 37.3153C0.863547 37.4806 0.878292 37.6534 0.942833 37.81C0.9963 37.9726 1.10669 38.1103 1.25369 38.198C1.40068 38.2856 1.57439 38.3172 1.74284 38.287C2.02496 38.2511 2.297 38.1589 2.54284 38.016C3.41184 37.516 4.26284 36.979 5.12484 36.463C5.33884 36.335 5.56884 36.234 5.81284 36.11C7.69984 40.949 11.1128 43.724 16.2688 43.748C21.4558 43.771 24.7958 40.8999 26.6778 36.1419C26.9148 36.2699 27.1258 36.374 27.3278 36.494C28.1898 37.009 29.0478 37.53 29.9098 38.046C30.0704 38.1491 30.2405 38.2364 30.4178 38.307C30.6186 38.3899 30.8425 38.3974 31.0484 38.3281C31.2542 38.2588 31.4281 38.1174 31.5378 37.93C31.6412 37.7387 31.67 37.5158 31.6186 37.3045C31.5673 37.0932 31.4395 36.9085 31.2598 36.786C31.0854 36.6596 30.9037 36.5434 30.7158 36.438C29.7528 35.859 28.7868 35.284 27.8248 34.703C27.5828 34.556 27.3508 34.394 27.1458 34.26C27.0252 32.0102 27.0676 29.7546 27.2728 27.511H28.0348C29.0628 27.511 30.0915 27.511 31.1208 27.511C31.3118 27.5195 31.5031 27.5125 31.6928 27.49C31.9108 27.4716 32.1131 27.3692 32.2569 27.2044C32.4008 27.0397 32.475 26.8255 32.4638 26.607C32.4706 26.4018 32.3995 26.2015 32.2649 26.0465C32.1302 25.8914 31.942 25.7931 31.7378 25.771ZM21.7978 26.541C22.0348 26.562 22.2918 26.575 22.5468 26.609C23.1568 26.689 23.5108 27.063 23.4808 27.582C23.4649 27.8234 23.3546 28.0489 23.1739 28.2098C22.9932 28.3707 22.7565 28.4541 22.5148 28.442C22.2798 28.46 22.0438 28.465 21.7738 28.478C21.669 29.0454 21.6532 29.6257 21.7268 30.198C21.9908 30.214 22.2448 30.2239 22.4978 30.2469C22.7275 30.2421 22.9503 30.3253 23.1206 30.4795C23.2908 30.6336 23.3958 30.847 23.4138 31.076C23.4253 31.196 23.413 31.317 23.3776 31.4322C23.3422 31.5474 23.2844 31.6545 23.2076 31.7474C23.1308 31.8403 23.0365 31.9171 22.9299 31.9735C22.8234 32.0299 22.7068 32.0647 22.5868 32.076C22.3298 32.122 22.0668 32.1269 21.8868 32.1429L20.8378 33.191C20.8244 33.5181 20.7887 33.8438 20.7308 34.166C20.6833 34.3784 20.5603 34.5664 20.3847 34.6952C20.2091 34.8239 19.9928 34.8845 19.7758 34.8659C19.5594 34.8462 19.3569 34.7507 19.204 34.5963C19.0511 34.4419 18.9575 34.2385 18.9398 34.0219C18.9208 33.8809 18.9328 33.736 18.9248 33.593C18.9158 33.43 18.8998 33.267 18.8818 33.046H17.1728C17.1568 33.309 17.1448 33.5409 17.1298 33.7729C17.0868 34.4309 16.7628 34.7839 16.1808 34.8089C15.6648 34.8309 15.3488 34.502 15.2528 33.836C15.2198 33.604 15.1968 33.371 15.1648 33.092H13.5798C13.5668 33.376 13.5598 33.654 13.5408 33.931C13.548 34.1726 13.4618 34.4077 13.3001 34.5874C13.1385 34.7671 12.9138 34.8776 12.6728 34.896C12.4191 34.9128 12.1687 34.8303 11.9746 34.6659C11.7805 34.5015 11.658 34.2681 11.6328 34.015C11.6047 33.7536 11.5896 33.4909 11.5878 33.228L10.5428 32.186C10.3898 32.175 10.1508 32.1739 9.91685 32.1379C9.67536 32.1238 9.44821 32.0186 9.2812 31.8436C9.11418 31.6686 9.01971 31.4368 9.01684 31.1949C9.00106 30.953 9.08087 30.7146 9.23908 30.531C9.3973 30.3473 9.62129 30.2332 9.86285 30.213C10.1178 30.161 10.3768 30.1289 10.6838 30.0799V28.6159C10.3928 28.5739 10.1148 28.5419 9.83984 28.4919C9.59925 28.4728 9.3737 28.3673 9.2048 28.1949C9.03589 28.0225 8.93505 27.7948 8.92085 27.5539C8.92968 27.3 9.03175 27.0583 9.20756 26.875C9.38336 26.6916 9.62056 26.5795 9.87383 26.56C10.1288 26.52 10.3878 26.51 10.6888 26.483V24.9029C10.4238 24.8879 10.1698 24.879 9.91685 24.859C9.66316 24.8661 9.41669 24.774 9.22991 24.6021C9.04314 24.4303 8.93082 24.1923 8.91685 23.9389C8.92448 23.6733 9.03385 23.4208 9.22239 23.2336C9.41092 23.0464 9.66419 22.9387 9.92983 22.933C10.1428 22.915 10.3588 22.933 10.5208 22.933L11.5898 21.826C11.5958 21.706 11.5968 21.4259 11.6288 21.1419C11.6316 20.9123 11.716 20.6913 11.867 20.5183C12.018 20.3453 12.2257 20.2317 12.4528 20.198C12.583 20.1726 12.717 20.1754 12.8459 20.2064C12.9748 20.2374 13.0955 20.2958 13.1999 20.3775C13.3042 20.4593 13.3897 20.5626 13.4506 20.6804C13.5116 20.7981 13.5464 20.9276 13.5528 21.06C13.5848 21.36 13.5858 21.6699 13.6028 22.0119C13.8628 22.0289 14.0718 22.0489 14.2808 22.0539C14.5608 22.0609 14.8418 22.0539 15.1658 22.0539C15.2058 21.7249 15.2298 21.4689 15.2658 21.2159C15.3658 20.5669 15.7068 20.24 16.2278 20.28C16.3541 20.2835 16.4783 20.3123 16.5931 20.365C16.7079 20.4176 16.8109 20.4929 16.896 20.5863C16.981 20.6796 17.0464 20.7892 17.0881 20.9084C17.1298 21.0276 17.1471 21.154 17.1388 21.28C17.1548 21.494 17.1658 21.708 17.1828 21.922C17.1828 21.942 17.2068 21.961 17.2528 22.03H18.9028C18.9138 21.743 18.9178 21.465 18.9358 21.187C18.9273 21.0673 18.9426 20.9471 18.981 20.8333C19.0193 20.7196 19.0799 20.6147 19.1592 20.5246C19.2385 20.4345 19.3349 20.3612 19.4428 20.3087C19.5507 20.2562 19.668 20.2257 19.7878 20.219C19.9136 20.2089 20.0401 20.2244 20.1597 20.2647C20.2792 20.305 20.3894 20.3693 20.4833 20.4535C20.5773 20.5376 20.6532 20.64 20.7064 20.7544C20.7596 20.8688 20.789 20.9929 20.7928 21.119C20.8308 21.401 20.8258 21.688 20.8358 21.87L21.9008 22.937C22.0608 22.945 22.3238 22.937 22.5818 22.972C22.824 22.9826 23.0533 23.084 23.2241 23.2559C23.3949 23.4279 23.4948 23.6578 23.5038 23.9C23.5014 24.0257 23.474 24.1496 23.4234 24.2647C23.3728 24.3798 23.2998 24.4838 23.2088 24.5705C23.1178 24.6573 23.0105 24.7251 22.8931 24.7701C22.7757 24.8152 22.6505 24.8366 22.5248 24.833C22.2898 24.849 22.0528 24.833 21.8328 24.833C21.6581 25.3873 21.6466 25.9803 21.7998 26.541H21.7978ZM12.7758 24.016C12.615 26.37 12.6277 28.7327 12.8138 31.0849H19.7138C19.8743 28.731 19.8642 26.3685 19.6838 24.016H12.7758Z" fill="#E27820"/>
</svg>
