<svg width="41" height="42" viewBox="0 0 41 42" fill="none" xmlns="http://www.w3.org/2000/svg">
<path d="M15.3101 28.114C15.8931 28.094 16.4811 28.144 17.0591 28.086C17.3472 28.0563 17.6133 27.9188 17.8041 27.701C18.1911 27.173 17.7511 26.501 17.0261 26.494C16.1111 26.478 15.1961 26.489 14.2811 26.489H12.4001C12.4001 26.01 12.4211 25.589 12.3911 25.165C12.4058 24.9157 12.3353 24.6688 12.1911 24.4649C11.9603 24.2748 11.6681 24.1753 11.3691 24.185C10.9591 24.221 10.7781 24.575 10.7691 24.974C10.7551 25.474 10.7691 25.969 10.7691 26.462C10.6261 26.474 10.5641 26.484 10.5011 26.484C9.0661 26.484 7.63009 26.484 6.19409 26.484C5.59409 26.484 5.2441 26.805 5.2511 27.308C5.2581 27.811 5.58812 28.0859 6.17212 28.0949C6.74012 28.1039 7.30813 28.0859 7.87213 28.1059C7.9444 28.1094 8.01511 28.1281 8.07971 28.1606C8.14432 28.1932 8.20137 28.239 8.24713 28.295C8.96013 29.514 9.65411 30.744 10.3781 32.015C9.49693 32.8977 8.39767 33.5311 7.19214 33.8509C6.60214 34.0019 6.33914 34.379 6.46314 34.865C6.48971 34.9816 6.54209 35.0908 6.61646 35.1845C6.69082 35.2783 6.78526 35.3541 6.89282 35.4065C7.00038 35.4589 7.11834 35.4865 7.23798 35.4873C7.35761 35.488 7.47588 35.462 7.58411 35.411C8.23472 35.2273 8.86524 34.9787 9.46613 34.6689C10.2151 34.2469 10.8961 33.7059 11.5781 33.2359C12.3101 33.7299 13.0351 34.29 13.8281 34.729C14.4311 35.0344 15.0655 35.2735 15.7201 35.442C15.8226 35.4745 15.9309 35.4854 16.0378 35.474C16.1448 35.4625 16.2483 35.4291 16.3416 35.3756C16.435 35.3221 16.5162 35.2498 16.5801 35.1633C16.6441 35.0768 16.6894 34.978 16.7131 34.873C16.7677 34.6722 16.741 34.4578 16.6389 34.2765C16.5367 34.0951 16.3672 33.9614 16.1671 33.904C16.0051 33.844 15.8341 33.809 15.6671 33.758C14.5863 33.4139 13.6028 32.8174 12.7981 32.0179C13.5251 30.7399 14.2171 29.509 14.9291 28.29C14.9769 28.2357 15.0354 28.192 15.101 28.1617C15.1666 28.1314 15.2378 28.1151 15.3101 28.114ZM11.5871 30.796L9.91815 28.13H13.2371L11.5871 30.796ZM23.0441 26.1269C23.0146 25.9297 22.9136 25.7502 22.7604 25.6224C22.6072 25.4947 22.4125 25.4276 22.2131 25.4339C22.0142 25.4432 21.8258 25.5263 21.6849 25.6671C21.544 25.8078 21.4606 25.996 21.4511 26.1949C21.4381 26.3519 21.4451 26.5099 21.4451 26.6679V37.556C21.4912 37.84 21.4694 38.1308 21.3817 38.4048C21.2939 38.6787 21.1425 38.928 20.94 39.1323C20.7375 39.3366 20.4894 39.49 20.2162 39.5802C19.9431 39.6703 19.6524 39.6946 19.3681 39.651H3.7901C3.51008 39.6944 3.22378 39.6711 2.95447 39.583C2.68516 39.4948 2.44047 39.3443 2.2403 39.1438C2.04012 38.9432 1.8901 38.6983 1.80249 38.4288C1.71488 38.1593 1.69218 37.8729 1.73615 37.593C1.73615 32.401 1.73615 27.2089 1.73615 22.0169C1.69361 21.7326 1.71885 21.4423 1.80981 21.1695C1.90078 20.8968 2.05488 20.6495 2.25958 20.4476C2.46429 20.2457 2.71376 20.0951 2.98773 20.0079C3.2617 19.9207 3.5524 19.8995 3.83612 19.946H14.7741C14.9161 19.946 15.0581 19.953 15.2001 19.941C15.3993 19.9329 15.588 19.85 15.7288 19.709C15.8697 19.5679 15.9523 19.3792 15.9601 19.18C15.9682 18.9728 15.8964 18.7704 15.7597 18.6145C15.623 18.4586 15.4316 18.3611 15.2251 18.342C15.0994 18.331 14.9732 18.328 14.8471 18.333C11.1531 18.333 7.45982 18.333 3.76715 18.333C3.28025 18.2953 2.79092 18.3631 2.33264 18.5318C1.87436 18.7006 1.45791 18.9662 1.11169 19.3106C0.765476 19.6551 0.497664 20.0702 0.326538 20.5276C0.155413 20.9849 0.0849929 21.4739 0.120117 21.961C0.116117 27.2004 0.116117 32.4393 0.120117 37.6779C0.112983 37.9929 0.139821 38.3077 0.200135 38.6169C0.363308 39.3885 0.794106 40.0776 1.41632 40.5622C2.03854 41.0468 2.81204 41.2957 3.6001 41.265C6.2511 41.277 8.90012 41.265 11.5551 41.265C14.1591 41.265 16.7631 41.265 19.3671 41.265C19.8619 41.3078 20.3601 41.2419 20.8267 41.0719C21.2933 40.9018 21.7171 40.6318 22.0684 40.2807C22.4196 39.9297 22.6899 39.5059 22.8602 39.0394C23.0304 38.5729 23.0967 38.0747 23.0541 37.5799C23.0541 33.9186 23.0541 30.2577 23.0541 26.597C23.0627 26.4403 23.0594 26.2831 23.0441 26.1269ZM5.11011 16.5739C5.22076 16.5757 5.33064 16.5548 5.43286 16.5124C5.53508 16.47 5.62746 16.407 5.70435 16.3274C5.78123 16.2478 5.84092 16.1533 5.87976 16.0497C5.9186 15.946 5.93575 15.8355 5.93012 15.7249C5.93512 15.6459 5.93511 15.567 5.93811 15.488C5.96642 14.5225 6.19852 13.5739 6.6192 12.7044C7.03988 11.835 7.63968 11.0643 8.37915 10.443C9.0833 9.81988 9.92116 9.36692 10.8281 9.11899C10.5441 9.78399 10.6161 10.1789 11.0281 10.4279C11.4401 10.6769 11.8231 10.5459 12.2341 10.0279C12.6261 9.53392 13.0261 9.04498 13.4061 8.54099C13.4828 8.46505 13.543 8.3742 13.5831 8.27402C13.6231 8.17383 13.6421 8.06644 13.6389 7.95859C13.6357 7.85074 13.6104 7.74471 13.5645 7.64706C13.5186 7.54942 13.4531 7.46223 13.3721 7.39096C12.7631 6.86696 12.1321 6.36397 11.4791 5.89597C11.4016 5.83918 11.3136 5.79833 11.2202 5.77573C11.1267 5.75312 11.0298 5.74919 10.9349 5.76425C10.84 5.77931 10.7489 5.81309 10.6671 5.86349C10.5853 5.9139 10.5143 5.97995 10.4581 6.05795C10.3312 6.20137 10.2616 6.38657 10.2627 6.57809C10.2638 6.76962 10.3355 6.95398 10.4641 7.09592C10.5671 7.19705 10.6777 7.29007 10.7951 7.37399C10.6851 7.42599 10.6581 7.443 10.6281 7.452C10.5281 7.486 10.4171 7.51397 10.3121 7.55197C9.17706 7.90168 8.12788 8.4854 7.23224 9.26547C6.33659 10.0455 5.61435 11.0047 5.11212 12.081C4.56426 13.2065 4.29016 14.4455 4.31213 15.697C4.30454 15.8075 4.31937 15.9184 4.35577 16.023C4.39218 16.1277 4.44937 16.2238 4.52393 16.3058C4.59848 16.3877 4.68887 16.4538 4.78961 16.4998C4.89035 16.5459 4.99936 16.5711 5.11011 16.5739ZM36.8531 0.881927C34.2651 0.881927 31.6764 0.881927 29.0871 0.881927C26.4511 0.881927 23.8151 0.876927 21.1791 0.881927C20.6961 0.850193 20.2119 0.922259 19.7591 1.09323C19.3062 1.2642 18.8952 1.53011 18.5537 1.87314C18.2122 2.21617 17.9481 2.6284 17.7791 3.082C17.6101 3.5356 17.5402 4.02016 17.5741 4.50302C17.5741 9.72635 17.5741 14.9496 17.5741 20.1729C17.5421 20.6601 17.6145 21.1485 17.7866 21.6053C17.9587 22.0622 18.2264 22.4769 18.5718 22.8219C18.9173 23.1668 19.3325 23.434 19.7896 23.6054C20.2466 23.7769 20.735 23.8487 21.2221 23.816C26.4314 23.816 31.6405 23.816 36.8491 23.816C37.34 23.8557 37.8336 23.7882 38.2958 23.6184C38.758 23.4485 39.1778 23.1802 39.5261 22.8321C39.8745 22.4841 40.1431 22.0646 40.3133 21.6025C40.4835 21.1404 40.5514 20.6468 40.5121 20.156C40.5121 14.948 40.5121 9.74026 40.5121 4.53293C40.5543 4.04215 40.4885 3.54808 40.3195 3.08542C40.1504 2.62276 39.8821 2.20276 39.5334 1.85483C39.1847 1.5069 38.7641 1.23957 38.301 1.0715C37.838 0.903436 37.3438 0.838667 36.8531 0.881927ZM38.8961 20.207C38.929 20.4762 38.9005 20.7494 38.8126 21.006C38.7247 21.2625 38.5797 21.4959 38.3887 21.6884C38.1976 21.881 37.9654 22.0276 37.7095 22.1174C37.4535 22.2072 37.1806 22.2379 36.9111 22.207C31.6731 22.207 26.4351 22.207 21.1971 22.207C20.9241 22.2367 20.6478 22.2043 20.389 22.1123C20.1302 22.0203 19.8955 21.8711 19.7023 21.6758C19.5092 21.4804 19.3626 21.244 19.2736 20.9841C19.1846 20.7242 19.1553 20.4477 19.1881 20.175C19.1881 14.986 19.2031 9.79603 19.1751 4.60702C19.1486 4.32087 19.1856 4.03237 19.2835 3.76218C19.3814 3.49198 19.5378 3.24665 19.7415 3.04391C19.9451 2.84118 20.1911 2.68596 20.4618 2.58932C20.7324 2.49269 21.0211 2.45706 21.3071 2.48495C23.8931 2.54295 26.4811 2.50192 29.0691 2.50192C31.6691 2.50192 34.2725 2.50192 36.8792 2.50192C37.1515 2.46343 37.4291 2.48853 37.6901 2.57516C37.9512 2.66179 38.1887 2.80763 38.384 3.00131C38.5794 3.19499 38.7273 3.43129 38.8161 3.69162C38.9049 3.95195 38.9323 4.22924 38.8961 4.50192C38.8988 9.73592 38.9001 14.971 38.9001 20.207H38.8961ZM29.8831 6.65097C29.8354 6.47372 29.7318 6.31653 29.5877 6.20285C29.4436 6.08917 29.2666 6.02509 29.0831 6.01999C28.6391 6.01999 28.4161 6.29402 28.2571 6.67502C26.7611 10.2637 25.2611 13.8516 23.7571 17.4389C23.6962 17.5361 23.6568 17.6451 23.6414 17.7588C23.6261 17.8724 23.6352 17.988 23.6682 18.0979C23.7011 18.2077 23.7571 18.3092 23.8325 18.3956C23.9078 18.482 24.0008 18.5514 24.1051 18.599C24.2149 18.6447 24.3333 18.6664 24.4522 18.6624C24.5711 18.6585 24.6878 18.6292 24.7944 18.5763C24.9009 18.5234 24.9949 18.4482 25.0699 18.3558C25.1449 18.2635 25.1992 18.1561 25.2291 18.041C25.5711 17.241 25.9111 16.449 26.2291 15.641C26.2552 15.529 26.3216 15.4305 26.4157 15.3645C26.5098 15.2984 26.625 15.2694 26.7391 15.2829C28.2851 15.2999 29.8311 15.2979 31.3771 15.2829C31.4835 15.2679 31.5917 15.2926 31.6812 15.3521C31.7706 15.4117 31.835 15.502 31.8621 15.6059C32.1891 16.4249 32.5151 17.246 32.8961 18.04C33.0448 18.2716 33.231 18.4766 33.4471 18.6469C34.2851 18.6709 34.6471 18.074 34.3691 17.41C32.8805 13.824 31.3851 10.2376 29.8831 6.65097ZM27.0741 13.657C27.7331 12.079 28.3741 10.548 29.0521 8.91599C29.7341 10.546 30.3721 12.074 31.0341 13.657H27.0741ZM35.5581 25.5789C35.0131 25.5359 34.7281 25.89 34.6841 26.662C34.6841 26.709 34.6791 26.7569 34.6751 26.8039C34.6131 28.1293 34.1675 29.4081 33.3925 30.485C32.6174 31.5618 31.5462 32.3904 30.3091 32.87C30.1404 32.9338 29.9685 32.989 29.7941 33.035C30.0851 32.36 30.0151 31.965 29.6041 31.723C29.1931 31.481 28.8041 31.609 28.3941 32.123C28.0201 32.592 27.6441 33.0579 27.2781 33.5329C27.1768 33.6237 27.0986 33.7374 27.0501 33.8645C27.0016 33.9916 26.9841 34.1284 26.9992 34.2636C27.0143 34.3988 27.0614 34.5285 27.1367 34.6418C27.212 34.7551 27.3133 34.8488 27.4321 34.915C27.8601 35.263 28.2951 35.604 28.7321 35.947C29.3451 36.432 29.7571 36.489 30.1091 36.139C30.4861 35.764 30.4242 35.356 29.8792 34.727C30.0361 34.674 30.1791 34.627 30.3311 34.576C32.0056 34.0491 33.4774 33.0195 34.5464 31.627C35.6154 30.2346 36.2298 28.5467 36.3062 26.7929C36.3395 26.0256 36.0901 25.6209 35.5581 25.5789Z" fill="#E27820"/>
</svg>
