<svg width="52" height="52" viewBox="0 0 52 52" fill="none" xmlns="http://www.w3.org/2000/svg">
<path d="M26.175 4.45007C30.4755 4.45007 34.6795 5.72536 38.2553 8.11462C41.8311 10.5039 44.6181 13.8999 46.2638 17.873C47.9096 21.8462 48.3402 26.2182 47.5012 30.4362C46.6622 34.6541 44.5913 38.5285 41.5503 41.5695C38.5094 44.6104 34.635 46.6813 30.417 47.5203C26.1991 48.3593 21.8271 47.9287 17.8539 46.283C13.8807 44.6372 10.4848 41.8502 8.09551 38.2744C5.70625 34.6986 4.43102 30.4946 4.43102 26.1941C4.43102 23.3386 4.99343 20.5112 6.08617 17.873C7.17891 15.2349 8.78055 12.8379 10.7997 10.8188C12.8188 8.79967 15.2158 7.19802 17.8539 6.10529C20.492 5.01255 23.3195 4.45007 26.175 4.45007ZM26.175 0.450073C21.0833 0.450073 16.1059 1.95997 11.8724 4.78876C7.63879 7.61754 4.33912 11.6382 2.39061 16.3423C0.442112 21.0464 -0.0676893 26.2226 0.925649 31.2165C1.91899 36.2103 4.37088 40.7975 7.97124 44.3979C11.5716 47.9983 16.1587 50.4501 21.1526 51.4434C26.1464 52.4368 31.3227 51.927 36.0268 49.9785C40.7309 48.03 44.7516 44.7303 47.5804 40.4967C50.4092 36.2631 51.919 31.2858 51.919 26.1941C51.9113 19.3687 49.1966 12.8251 44.3703 7.99884C39.544 3.17257 33.0004 0.457749 26.175 0.450073Z" fill="url(#paint0_linear_595_2)"/>
<path d="M26.529 38.3001C25.5742 38.3157 24.6206 38.2271 23.685 38.0361C20.6958 37.3969 18.0575 35.6541 16.2966 33.1555C14.5357 30.6569 13.7817 27.5861 14.185 24.5561C14.5097 21.9707 15.6888 19.5679 17.535 17.7291C19.2965 15.9101 21.5919 14.6998 24.088 14.2741C24.388 14.2211 24.698 14.1821 25.005 14.1421L25.453 14.0831H26.96L27.31 14.1301C27.596 14.1641 27.881 14.1981 28.163 14.2461C30.6316 14.6657 32.9103 15.8379 34.6872 17.6021C36.4642 19.3664 37.6527 21.6366 38.09 24.1021C38.143 24.4081 38.183 24.7181 38.223 25.0281L38.28 25.4661L38.275 26.8251L38.252 26.9561C38.229 27.1111 38.207 27.2671 38.188 27.4231C38.183 27.6213 38.0999 27.8096 37.9569 27.9468C37.8138 28.0841 37.6223 28.1594 37.424 28.1561C37.424 28.1561 37.352 28.1561 37.315 28.1501C37.2238 28.1397 37.1356 28.1112 37.0556 28.0662C36.9755 28.0212 36.9053 27.9606 36.849 27.8881C36.779 27.7985 36.7276 27.6959 36.6979 27.5861C36.6682 27.4764 36.6608 27.3618 36.676 27.2491L36.691 27.1071C36.712 26.9331 36.731 26.7591 36.741 26.5841C36.785 25.5676 36.6744 24.5504 36.413 23.5671C36.3859 23.459 36.3234 23.3632 36.2355 23.2947C36.1476 23.2263 36.0394 23.1891 35.928 23.1891H31.122C31.0549 23.189 30.9884 23.2025 30.9267 23.2287C30.8649 23.2549 30.8089 23.2932 30.7623 23.3415C30.7156 23.3897 30.6792 23.4469 30.6551 23.5095C30.631 23.5722 30.6197 23.639 30.622 23.7061L30.651 24.4551C30.674 25.0161 30.695 25.5711 30.705 26.1251C30.7103 26.2358 30.6934 26.3465 30.6552 26.4506C30.6171 26.5546 30.5585 26.65 30.483 26.7311C30.4142 26.801 30.332 26.8562 30.2412 26.8934C30.1505 26.9305 30.0531 26.9488 29.955 26.9471C29.8509 26.9448 29.7482 26.9218 29.653 26.8794C29.5578 26.837 29.4719 26.7762 29.4005 26.7003C29.329 26.6245 29.2733 26.5352 29.2366 26.4377C29.2 26.3401 29.1832 26.2362 29.187 26.1321C29.175 25.7951 29.158 25.4581 29.141 25.1211C29.122 24.7211 29.102 24.3211 29.09 23.9211C29.0971 23.8182 29.0817 23.715 29.0451 23.6185C29.0084 23.5221 28.9512 23.4348 28.8776 23.3625C28.8039 23.2903 28.7155 23.2349 28.6184 23.2001C28.5213 23.1654 28.4178 23.152 28.315 23.1611C27.575 23.1671 26.846 23.1681 26.115 23.1681H24.025C23.961 23.1681 23.897 23.1681 23.825 23.1751C23.6959 23.1807 23.5721 23.2278 23.4719 23.3094C23.3717 23.391 23.3005 23.5028 23.269 23.6281C23.0905 25.3321 23.0905 27.0501 23.269 28.7541C23.2821 28.8773 23.3406 28.9913 23.4329 29.0739C23.5253 29.1564 23.6451 29.2018 23.769 29.2011H26.1C26.2054 29.1926 26.3115 29.2059 26.4116 29.2401C26.5116 29.2743 26.6036 29.3287 26.6817 29.4C26.7598 29.4713 26.8224 29.5579 26.8657 29.6544C26.9089 29.7509 26.9318 29.8554 26.933 29.9611C26.9334 30.0664 26.9118 30.1706 26.8698 30.2672C26.8277 30.3637 26.766 30.4503 26.6886 30.5217C26.6111 30.5931 26.5198 30.6476 26.4202 30.6818C26.3206 30.7159 26.2149 30.729 26.11 30.7201H24.466C24.393 30.7201 24.321 30.7201 24.252 30.7291C24.1318 30.7355 24.0165 30.7789 23.922 30.8533C23.8275 30.9278 23.7583 31.0297 23.724 31.1451C23.6999 31.2307 23.6965 31.3209 23.714 31.4081C24.0823 33.1685 24.7449 34.8542 25.674 36.3941C25.7482 36.502 25.8462 36.5913 25.9605 36.6552C26.0748 36.719 26.2023 36.7556 26.333 36.7621C26.478 36.7681 26.624 36.7701 26.768 36.7701H27.451C27.6417 36.7737 27.8238 36.8497 27.9605 36.9827C28.0972 37.1156 28.1782 37.2956 28.187 37.4861C28.2023 37.6777 28.1417 37.8678 28.0183 38.0152C27.8948 38.1626 27.7184 38.2556 27.527 38.2741C27.2 38.2931 26.862 38.3001 26.529 38.3001ZM17.7 30.7291C17.648 30.7291 17.6 30.7291 17.527 30.7381C17.4345 30.7438 17.3447 30.7714 17.265 30.8185C17.1852 30.8656 17.1177 30.9309 17.068 31.0091C17.0213 31.082 16.9938 31.1655 16.9882 31.252C16.9826 31.3384 16.9991 31.4248 17.036 31.5031C18.3438 33.7365 20.4179 35.4191 22.873 36.2381C22.9624 36.2695 23.059 36.2748 23.1513 36.2534C23.2437 36.232 23.3281 36.1849 23.3947 36.1174C23.4612 36.0499 23.5072 35.9648 23.5273 35.8722C23.5474 35.7795 23.5407 35.6831 23.508 35.5941L23.442 35.4151C22.8597 34.1002 22.4237 32.7253 22.142 31.3151C22.1157 31.1406 22.0235 30.9827 21.8844 30.8741C21.7452 30.7655 21.5697 30.7143 21.394 30.7311L17.7 30.7291ZM16.571 23.1711C16.4074 23.1657 16.2477 23.2214 16.1229 23.3273C15.9982 23.4332 15.9173 23.5818 15.896 23.7441C15.5042 25.3424 15.5008 27.0112 15.886 28.6111C15.9156 28.7879 16.0102 28.9474 16.1511 29.0583C16.292 29.1693 16.4691 29.2238 16.648 29.2111C17.476 29.2111 21.007 29.2111 21.007 29.2111C21.077 29.2111 21.144 29.2051 21.188 29.2011C21.3161 29.1911 21.4363 29.1349 21.5261 29.0429C21.6158 28.9509 21.6692 28.8295 21.676 28.7011V23.7751C21.6813 23.7464 21.6839 23.7173 21.684 23.6881C21.6766 23.5511 21.617 23.4222 21.5175 23.3277C21.418 23.2332 21.2862 23.1804 21.149 23.1801L16.571 23.1711ZM21.431 21.6561C21.5998 21.6637 21.7655 21.6085 21.896 21.5012C22.0266 21.3939 22.1127 21.2421 22.138 21.0751L22.238 20.6271C22.338 20.1891 22.438 19.7521 22.576 19.3271C22.762 18.7451 22.97 18.1691 23.176 17.5851L23.46 16.7941C23.4915 16.7051 23.4971 16.6091 23.4762 16.517C23.4553 16.425 23.4088 16.3407 23.3421 16.274C23.2754 16.2073 23.1911 16.1608 23.0991 16.1399C23.007 16.119 22.911 16.1247 22.822 16.1561C20.3898 16.9851 18.3358 18.6596 17.034 20.8751C16.9927 20.9443 16.9687 21.0225 16.9641 21.103C16.9595 21.1835 16.9744 21.2639 17.0076 21.3374C17.0408 21.4109 17.0913 21.4752 17.1547 21.525C17.2182 21.5747 17.2928 21.6084 17.372 21.6231C17.4417 21.6409 17.5131 21.6509 17.585 21.6531H18.855C19.714 21.6521 21.426 21.6561 21.426 21.6561H21.431ZM29.301 16.1561C29.2187 16.1562 29.1376 16.1765 29.065 16.2155C28.9924 16.2544 28.9306 16.3106 28.885 16.3792C28.8393 16.4477 28.8114 16.5265 28.8035 16.6085C28.7957 16.6905 28.8083 16.7731 28.84 16.8491L28.959 17.1291C29.4515 18.2652 29.8384 19.4442 30.115 20.6511C30.315 21.4931 30.508 21.6511 31.364 21.6511H34.856C34.9369 21.6511 35.0165 21.6315 35.0881 21.594C35.1597 21.5565 35.2211 21.5022 35.2671 21.4357C35.3131 21.3693 35.3423 21.2926 35.3522 21.2124C35.3622 21.1322 35.3524 21.0508 35.324 20.9751C34.628 19.1311 30.912 16.1591 29.3 16.1591L29.301 16.1561ZM26.16 15.6501C26.0745 15.6504 25.9906 15.6727 25.9162 15.7147C25.8418 15.7567 25.7794 15.8171 25.735 15.8901C24.7838 17.479 24.1003 19.2135 23.712 21.0241C23.6953 21.0973 23.6954 21.1733 23.7121 21.2465C23.7288 21.3196 23.7618 21.388 23.8085 21.4467C23.8553 21.5054 23.9147 21.5528 23.9823 21.5854C24.0499 21.6181 24.1239 21.6351 24.199 21.6351H28.141C28.2163 21.6351 28.2906 21.6181 28.3584 21.5854C28.4261 21.5527 28.4856 21.505 28.5324 21.4461C28.5792 21.3872 28.6122 21.3185 28.6287 21.2451C28.6453 21.1716 28.645 21.0954 28.628 21.0221C28.2345 19.2102 27.5449 17.4756 26.587 15.8881C26.5423 15.8155 26.4799 15.7555 26.4055 15.7139C26.3311 15.6722 26.2473 15.6502 26.162 15.6501H26.16Z" fill="#CD4941"/>
<path d="M37.369 32.7361C35.065 31.6914 32.7623 30.6451 30.461 29.5971C30.3377 29.5212 30.1923 29.4894 30.0485 29.5067C29.9047 29.524 29.7711 29.5894 29.6693 29.6924C29.5675 29.7954 29.5035 29.9297 29.4878 30.0737C29.4722 30.2176 29.5057 30.3627 29.583 30.4851C30.627 32.7811 31.6703 35.0764 32.713 37.3711C32.7532 37.5015 32.8336 37.6159 32.9428 37.6979C33.0519 37.7798 33.1842 37.8251 33.3207 37.8273C33.4572 37.8296 33.5909 37.7886 33.7026 37.7102C33.8144 37.6319 33.8985 37.5202 33.943 37.3911C34.269 36.7301 34.606 36.0751 34.928 35.4121C35.0258 35.204 35.1941 35.0372 35.403 34.9411C36.073 34.6151 36.737 34.2751 37.403 33.9411C37.5261 33.8929 37.6313 33.8078 37.7042 33.6975C37.7771 33.5872 37.8142 33.457 37.8104 33.3248C37.8066 33.1926 37.762 33.0648 37.6828 32.9589C37.6037 32.853 37.4937 32.7742 37.368 32.7331L37.369 32.7361Z" fill="#8E3E39"/>
<defs>
<linearGradient id="paint0_linear_595_2" x1="0.430969" y1="26.1941" x2="51.919" y2="26.1941" gradientUnits="userSpaceOnUse">
<stop stop-color="#CC4941"/>
<stop offset="0.128" stop-color="#6F3531"/>
<stop offset="0.301" stop-color="#4C2B28"/>
<stop offset="0.464" stop-color="#332322"/>
<stop offset="0.612" stop-color="#241F1E"/>
<stop offset="0.732" stop-color="#1F1E1D" stop-opacity="0"/>
</linearGradient>
</defs>
</svg>
